<?xml version="1.0" encoding="UTF-8"?>
<svg xmlns="http://www.w3.org/2000/svg" xmlns:xlink="http://www.w3.org/1999/xlink" viewBox="0 0 415.961 214.242">
<defs>
<g>
<g id="glyph-0-0">
<path d="M 5.171875 -8.359375 C 4.140625 -8.265625 3.234375 -8.0625 2.390625 -7.484375 C 1.296875 -6.71875 0.734375 -5.421875 0.734375 -4.109375 C 0.734375 -3.078125 1.09375 -2.03125 1.796875 -1.25 C 2.71875 -0.265625 4.140625 0.125 5.421875 0.125 C 7.046875 0.125 8.84375 -0.84375 8.953125 -2.671875 L 8.953125 -2.75 C 8.953125 -2.859375 8.921875 -2.953125 8.78125 -2.953125 L 8.671875 -2.953125 C 8.515625 -2.953125 8.4375 -2.90625 8.4375 -2.75 L 8.4375 -2.671875 C 8.21875 -1.234375 7.046875 -0.375 5.65625 -0.375 C 4.546875 -0.375 3.359375 -0.859375 2.828125 -1.921875 C 2.5 -2.578125 2.421875 -3.40625 2.421875 -4.109375 C 2.421875 -4.859375 2.5 -5.671875 2.84375 -6.34375 C 3.375 -7.375 4.5625 -7.84375 5.6875 -7.84375 C 7.03125 -7.84375 8.09375 -6.8125 8.34375 -5.53125 L 8.375 -5.3125 C 8.421875 -5.1875 8.453125 -5.125 8.609375 -5.125 L 8.71875 -5.125 C 8.890625 -5.125 8.953125 -5.1875 8.953125 -5.3125 L 8.953125 -8.125 C 8.953125 -8.25 8.921875 -8.359375 8.78125 -8.359375 C 8.59375 -8.359375 8.234375 -7.9375 8 -7.703125 L 7.859375 -7.5625 C 7.84375 -7.546875 7.8125 -7.53125 7.78125 -7.53125 C 7.734375 -7.53125 7.609375 -7.640625 7.546875 -7.703125 C 6.90625 -8.109375 6.203125 -8.359375 5.4375 -8.359375 C 5.359375 -8.359375 5.265625 -8.359375 5.171875 -8.359375 Z M 5.171875 -8.359375 "/>
</g>
<g id="glyph-0-1">
<path d="M 3.125 -5.421875 C 2.234375 -5.328125 1.390625 -5.0625 0.828125 -4.25 C 0.53125 -3.78125 0.375 -3.21875 0.375 -2.640625 C 0.375 -1.953125 0.59375 -1.25 1.09375 -0.75 C 1.671875 -0.171875 2.515625 0.0625 3.34375 0.0625 C 4.15625 0.0625 5.046875 -0.171875 5.625 -0.765625 C 6.125 -1.25 6.328125 -1.953125 6.328125 -2.625 C 6.328125 -3.34375 6.078125 -4.078125 5.609375 -4.59375 C 5.015625 -5.21875 4.109375 -5.421875 3.28125 -5.421875 Z M 1.8125 -2.265625 L 1.8125 -2.96875 C 1.8125 -3.53125 1.828125 -4.203125 2.265625 -4.625 C 2.53125 -4.90625 2.953125 -5.03125 3.359375 -5.03125 C 4.265625 -5.03125 4.78125 -4.4375 4.859375 -3.578125 C 4.890625 -3.34375 4.90625 -3.109375 4.90625 -2.875 L 4.90625 -2.515625 C 4.90625 -1.96875 4.859375 -1.3125 4.53125 -0.890625 C 4.25 -0.53125 3.796875 -0.375 3.359375 -0.375 C 2.890625 -0.375 2.421875 -0.546875 2.15625 -0.921875 C 1.859375 -1.3125 1.859375 -1.8125 1.8125 -2.265625 Z M 1.8125 -2.265625 "/>
</g>
<g id="glyph-0-2">
<path d="M 0.5 -5.296875 L 0.5 -4.78125 L 0.734375 -4.78125 C 1.046875 -4.78125 1.328125 -4.75 1.328125 -4.390625 L 1.328125 -0.53125 L 0.5 -0.53125 L 0.5 -0.015625 L 3.453125 -0.015625 L 3.453125 -0.53125 L 2.625 -0.53125 L 2.625 -2.546875 C 2.625 -2.703125 2.625 -2.859375 2.625 -3.015625 C 2.625 -4 3.296875 -5 4.34375 -5 C 4.921875 -5 5.0625 -4.40625 5.0625 -3.765625 L 5.0625 -0.53125 L 4.234375 -0.53125 L 4.234375 -0.015625 L 7.1875 -0.015625 L 7.1875 -0.53125 L 6.359375 -0.53125 L 6.359375 -2.546875 C 6.359375 -2.703125 6.34375 -2.859375 6.34375 -3.015625 C 6.34375 -4 7.03125 -5 8.078125 -5 C 8.65625 -5 8.78125 -4.40625 8.78125 -3.765625 L 8.78125 -0.53125 L 7.953125 -0.53125 L 7.953125 -0.015625 L 10.90625 -0.015625 L 10.90625 -0.53125 L 10.09375 -0.53125 L 10.09375 -3.578125 C 10.09375 -3.984375 10.0625 -4.390625 9.84375 -4.734375 C 9.515625 -5.3125 8.8125 -5.390625 8.21875 -5.390625 C 7.453125 -5.390625 6.59375 -4.921875 6.328125 -4.203125 L 6.3125 -4.203125 C 6.1875 -5.109375 5.375 -5.390625 4.546875 -5.390625 C 3.890625 -5.390625 3.28125 -5.125 2.859375 -4.625 C 2.71875 -4.46875 2.578125 -4.28125 2.53125 -4.078125 L 2.515625 -5.390625 L 1.1875 -5.390625 Z M 0.5 -5.296875 "/>
</g>
<g id="glyph-0-3">
<path d="M 4.140625 -8.21875 L 4.140625 -7.703125 C 4.25 -7.703125 4.34375 -7.703125 4.453125 -7.703125 C 4.703125 -7.703125 4.96875 -7.65625 4.96875 -7.296875 L 4.96875 -4.828125 C 4.515625 -5.1875 3.96875 -5.390625 3.375 -5.390625 C 1.859375 -5.390625 0.4375 -4.46875 0.4375 -2.65625 C 0.4375 -1.203125 1.421875 0.0625 3.15625 0.0625 C 3.796875 0.0625 4.40625 -0.125 4.90625 -0.546875 L 4.90625 0.0625 L 6.453125 0.0625 L 7.046875 -0.015625 L 7.046875 -0.53125 C 6.9375 -0.53125 6.84375 -0.515625 6.734375 -0.515625 C 6.453125 -0.515625 6.21875 -0.578125 6.21875 -0.9375 L 6.21875 -8.3125 L 4.59375 -8.234375 Z M 1.890625 -2.1875 L 1.890625 -2.78125 C 1.890625 -3.46875 1.9375 -4.265625 2.546875 -4.703125 C 2.828125 -4.90625 3.15625 -5 3.484375 -5 C 4 -5 4.5 -4.765625 4.8125 -4.375 C 4.859375 -4.328125 4.90625 -4.265625 4.90625 -4.203125 L 4.90625 -1.375 C 4.90625 -1.296875 4.90625 -1.234375 4.859375 -1.15625 C 4.546875 -0.671875 3.9375 -0.328125 3.34375 -0.328125 C 2.484375 -0.328125 2 -1.03125 1.921875 -1.8125 C 1.90625 -1.9375 1.90625 -2.0625 1.890625 -2.1875 Z M 1.890625 -2.1875 "/>
</g>
<g id="glyph-0-4">
<path d="M 1.8125 -2.65625 L 5.515625 -2.65625 C 5.671875 -2.65625 5.75 -2.75 5.75 -2.90625 C 5.75 -4.1875 5.140625 -5.421875 3.234375 -5.421875 C 2.546875 -5.421875 1.859375 -5.234375 1.3125 -4.8125 C 0.6875 -4.3125 0.375 -3.5 0.375 -2.703125 C 0.375 -0.984375 1.703125 0.0625 3.453125 0.0625 C 4.359375 0.0625 5.359375 -0.359375 5.71875 -1.28125 C 5.734375 -1.3125 5.75 -1.359375 5.75 -1.40625 C 5.75 -1.53125 5.640625 -1.609375 5.484375 -1.609375 C 5.21875 -1.609375 5.21875 -1.328125 5.0625 -1.109375 C 4.734375 -0.625 4.140625 -0.375 3.546875 -0.375 C 2.96875 -0.375 2.40625 -0.609375 2.109375 -1.125 C 1.84375 -1.578125 1.8125 -2.140625 1.8125 -2.65625 Z M 1.8125 -3.015625 C 1.8125 -3.953125 2.15625 -5.03125 3.265625 -5.03125 C 4.125 -5.03125 4.515625 -4.265625 4.609375 -3.515625 C 4.609375 -3.34375 4.609375 -3.171875 4.640625 -3.015625 Z M 1.8125 -3.015625 "/>
</g>
<g id="glyph-0-5">
<path d="M 2.34375 -5.421875 C 1.4375 -5.34375 0.4375 -5 0.4375 -3.859375 C 0.4375 -2.171875 2.921875 -2.375 3.625 -1.9375 C 3.84375 -1.78125 4.046875 -1.546875 4.046875 -1.25 C 4.046875 -0.59375 3.4375 -0.375 2.9375 -0.34375 L 2.734375 -0.34375 C 2.046875 -0.34375 1.3125 -0.609375 1.046875 -1.546875 C 0.984375 -1.703125 1 -1.9375 0.75 -1.9375 L 0.640625 -1.9375 C 0.484375 -1.9375 0.4375 -1.84375 0.4375 -1.703125 C 0.4375 -1.640625 0.4375 -1.5625 0.4375 -1.515625 L 0.4375 -0.359375 C 0.4375 -0.3125 0.4375 -0.234375 0.4375 -0.171875 C 0.4375 -0.078125 0.453125 0.03125 0.5625 0.0625 L 0.609375 0.0625 C 0.71875 0.0625 0.796875 0 0.890625 -0.0625 L 1.09375 -0.234375 C 1.140625 -0.265625 1.203125 -0.328125 1.28125 -0.328125 L 1.296875 -0.328125 C 1.40625 -0.328125 1.609375 -0.140625 1.796875 -0.078125 C 2.078125 0.03125 2.359375 0.078125 2.671875 0.078125 C 3.640625 0.078125 4.859375 -0.28125 4.859375 -1.640625 C 4.859375 -2.53125 4.140625 -3.15625 3.3125 -3.34375 C 2.625 -3.5 1.25 -3.53125 1.25 -4.265625 C 1.25 -5.015625 2.171875 -5.0625 2.609375 -5.0625 C 3.328125 -5.0625 3.859375 -4.796875 4 -4 C 4 -3.828125 4.046875 -3.78125 4.1875 -3.78125 L 4.28125 -3.78125 C 4.46875 -3.78125 4.5 -3.859375 4.5 -4 L 4.5 -5.0625 C 4.5 -5.109375 4.515625 -5.15625 4.515625 -5.21875 C 4.515625 -5.328125 4.46875 -5.4375 4.34375 -5.4375 C 4.125 -5.4375 3.9375 -5.1875 3.796875 -5.1875 C 3.703125 -5.1875 3.484375 -5.3125 3.328125 -5.34375 C 3.09375 -5.40625 2.828125 -5.4375 2.578125 -5.4375 C 2.5 -5.4375 2.421875 -5.421875 2.34375 -5.421875 Z M 2.34375 -5.421875 "/>
</g>
<g id="glyph-0-6">
<path d="M 4.28125 -4.921875 C 4.125 -4.765625 4.03125 -4.609375 4.03125 -4.359375 C 4.03125 -3.984375 4.28125 -3.734375 4.65625 -3.65625 L 4.734375 -3.65625 C 5.140625 -3.65625 5.4375 -3.96875 5.4375 -4.359375 C 5.4375 -5.40625 3.9375 -5.4375 3.453125 -5.4375 C 2.71875 -5.4375 2.015625 -5.265625 1.421875 -4.828125 C 0.75 -4.328125 0.4375 -3.5 0.4375 -2.671875 C 0.4375 -1.984375 0.65625 -1.25 1.15625 -0.75 C 1.71875 -0.171875 2.5625 0.0625 3.34375 0.0625 C 4.203125 0.0625 5.078125 -0.28125 5.46875 -1.0625 C 5.5 -1.140625 5.59375 -1.296875 5.59375 -1.40625 C 5.59375 -1.53125 5.484375 -1.546875 5.375 -1.546875 L 5.28125 -1.546875 C 5.046875 -1.546875 5.0625 -1.34375 4.984375 -1.203125 C 4.6875 -0.6875 4.203125 -0.375 3.578125 -0.375 C 2.125 -0.375 1.890625 -1.75 1.890625 -2.75 C 1.890625 -3.625 2.03125 -4.890625 3.265625 -5 L 3.390625 -5 C 3.6875 -5 4 -4.984375 4.28125 -4.921875 Z M 4.28125 -4.921875 "/>
</g>
<g id="glyph-0-7">
<path d="M 0.421875 -8.21875 L 0.421875 -7.703125 C 0.53125 -7.703125 0.625 -7.703125 0.734375 -7.703125 C 1 -7.703125 1.25 -7.65625 1.25 -7.296875 L 1.25 -0.015625 L 1.75 -0.03125 L 2.328125 -0.6875 C 2.96875 -0.21875 3.296875 0.0625 4.09375 0.0625 C 5.640625 0.0625 7.03125 -0.9375 7.03125 -2.671875 C 7.03125 -4.3125 5.78125 -5.40625 4.25 -5.40625 C 3.59375 -5.40625 3.03125 -5.171875 2.484375 -4.796875 L 2.484375 -8.3125 L 0.859375 -8.234375 Z M 5.5625 -2.21875 C 5.515625 -1.71875 5.484375 -1.25 5.15625 -0.859375 C 4.859375 -0.515625 4.40625 -0.328125 3.96875 -0.328125 C 3.4375 -0.328125 2.546875 -0.75 2.546875 -1.34375 L 2.546875 -4.140625 C 2.609375 -4.546875 3.484375 -5 4.078125 -5 C 5.4375 -5 5.5625 -3.71875 5.5625 -2.828125 L 5.5625 -2.515625 C 5.5625 -2.40625 5.5625 -2.3125 5.5625 -2.21875 Z M 5.5625 -2.21875 "/>
</g>
<g id="glyph-0-8">
<path d="M 0.421875 -5.296875 L 0.421875 -4.78125 L 0.65625 -4.78125 C 0.96875 -4.78125 1.25 -4.75 1.25 -4.390625 L 1.25 -0.53125 L 0.421875 -0.53125 L 0.421875 -0.015625 L 3.53125 -0.015625 L 3.53125 -0.53125 L 2.484375 -0.53125 L 2.484375 -2.203125 C 2.484375 -3.28125 2.546875 -5 3.96875 -5 L 3.96875 -4.984375 C 3.796875 -4.875 3.71875 -4.671875 3.71875 -4.453125 C 3.71875 -4.046875 4.03125 -3.75 4.40625 -3.75 L 4.484375 -3.75 C 4.859375 -3.796875 5.109375 -4.0625 5.109375 -4.4375 C 5.109375 -5.0625 4.484375 -5.390625 3.921875 -5.390625 C 3.328125 -5.390625 2.8125 -5.015625 2.5625 -4.46875 C 2.484375 -4.34375 2.421875 -4.203125 2.390625 -4.046875 L 2.375 -5.390625 L 1.078125 -5.328125 Z M 0.421875 -5.296875 "/>
</g>
<g id="glyph-0-9">
<path d="M 0.5625 -5.296875 L 0.5625 -4.78125 C 0.65625 -4.78125 0.765625 -4.796875 0.859375 -4.796875 C 1.109375 -4.796875 1.34375 -4.734375 1.34375 -4.390625 L 1.34375 -0.53125 L 0.53125 -0.53125 L 0.53125 -0.015625 L 3.328125 -0.015625 L 3.328125 -0.53125 L 2.59375 -0.53125 L 2.59375 -5.390625 L 1.25 -5.390625 Z M 1.703125 -8.3125 C 1.265625 -8.234375 0.9375 -7.90625 0.9375 -7.46875 C 0.9375 -7.015625 1.296875 -6.59375 1.828125 -6.59375 L 1.90625 -6.59375 C 2.34375 -6.6875 2.671875 -7.015625 2.671875 -7.453125 C 2.671875 -7.90625 2.3125 -8.3125 1.78125 -8.3125 Z M 1.703125 -8.3125 "/>
</g>
<g id="glyph-0-10">
<path d="M 1.75 -5.3125 C 1.328125 -5.234375 1 -4.90625 1 -4.46875 C 1 -4.015625 1.34375 -3.59375 1.890625 -3.59375 L 1.96875 -3.59375 C 2.40625 -3.6875 2.71875 -4.015625 2.71875 -4.453125 C 2.71875 -4.90625 2.375 -5.3125 1.84375 -5.3125 Z M 1.75 -1.734375 C 1.328125 -1.65625 1 -1.3125 1 -0.890625 C 1 -0.4375 1.34375 -0.015625 1.890625 -0.015625 L 1.96875 -0.015625 C 2.40625 -0.09375 2.71875 -0.4375 2.71875 -0.859375 C 2.71875 -1.3125 2.375 -1.734375 1.84375 -1.734375 Z M 1.75 -1.734375 "/>
</g>
<g id="glyph-0-11">
<path d="M 0.5 -5.296875 L 0.5 -4.78125 L 0.734375 -4.78125 C 1.046875 -4.78125 1.328125 -4.75 1.328125 -4.390625 L 1.328125 -0.53125 L 0.5 -0.53125 L 0.5 -0.015625 L 3.453125 -0.015625 L 3.453125 -0.53125 L 2.625 -0.53125 L 2.625 -2.5625 C 2.625 -2.703125 2.625 -2.84375 2.625 -3 C 2.625 -3.9375 3.25 -5 4.34375 -5 C 5.015625 -5 5.046875 -4.234375 5.046875 -3.59375 L 5.046875 -0.53125 L 4.21875 -0.53125 L 4.21875 -0.015625 L 7.171875 -0.015625 L 7.171875 -0.53125 L 6.34375 -0.53125 L 6.34375 -3.53125 C 6.34375 -3.9375 6.328125 -4.375 6.109375 -4.75 C 5.78125 -5.296875 5.09375 -5.390625 4.5 -5.390625 C 3.6875 -5.390625 2.796875 -4.890625 2.53125 -4.09375 L 2.515625 -5.390625 L 1.1875 -5.390625 Z M 0.5 -5.296875 "/>
</g>
<g id="glyph-0-12">
<path d="M 2 -7.609375 C 2 -6.640625 1.515625 -5.203125 0.25 -5.203125 L 0.25 -4.8125 L 1.203125 -4.8125 L 1.203125 -1.625 C 1.203125 -0.609375 1.6875 0.0625 3.078125 0.0625 C 4 0.0625 4.484375 -0.703125 4.484375 -1.5625 C 4.484375 -1.75 4.46875 -1.953125 4.46875 -2.125 L 3.953125 -2.125 L 3.953125 -1.609375 C 3.953125 -1.15625 3.875 -0.375 3.21875 -0.375 C 2.625 -0.375 2.515625 -1 2.515625 -1.546875 L 2.515625 -4.8125 L 4.25 -4.8125 L 4.25 -5.3125 L 2.515625 -5.3125 L 2.515625 -7.609375 Z M 2 -7.609375 "/>
</g>
<g id="glyph-0-13">
<path d="M 1.984375 -4.921875 L 1.984375 -4.9375 C 2.265625 -5 2.578125 -5.03125 2.875 -5.03125 C 3.59375 -5.03125 4.203125 -4.671875 4.203125 -3.515625 L 4.203125 -3.125 C 2.734375 -3.125 0.390625 -2.78125 0.390625 -1.265625 C 0.390625 -0.203125 1.734375 0.0625 2.671875 0.0625 L 2.796875 0.0625 C 3.421875 0.03125 4.140625 -0.359375 4.34375 -0.9375 C 4.390625 -0.78125 4.34375 -0.609375 4.421875 -0.4375 C 4.65625 -0.046875 5.171875 -0.015625 5.59375 -0.015625 L 6.328125 -0.015625 C 6.484375 -0.015625 6.53125 -0.125 6.53125 -0.28125 C 6.53125 -0.4375 6.46875 -0.53125 6.28125 -0.53125 L 6.1875 -0.53125 C 5.921875 -0.546875 5.515625 -0.578125 5.5 -0.84375 L 5.5 -3.484375 C 5.5 -4.21875 5.203125 -4.765625 4.53125 -5.109375 C 4.03125 -5.359375 3.484375 -5.421875 2.921875 -5.421875 C 2.234375 -5.421875 0.859375 -5.390625 0.859375 -4.34375 C 0.859375 -4.03125 1.078125 -3.703125 1.46875 -3.640625 L 1.546875 -3.640625 C 1.921875 -3.640625 2.265625 -3.90625 2.265625 -4.34375 C 2.265625 -4.578125 2.171875 -4.8125 1.984375 -4.921875 Z M 4.203125 -2.796875 L 4.203125 -1.703125 C 4.203125 -0.890625 3.578125 -0.328125 2.828125 -0.328125 C 2.296875 -0.328125 1.734375 -0.6875 1.734375 -1.28125 C 1.734375 -2.3125 2.96875 -2.671875 3.75 -2.765625 C 3.890625 -2.765625 4.046875 -2.765625 4.203125 -2.796875 Z M 4.203125 -2.796875 "/>
</g>
<g id="glyph-0-14">
<path d="M 0.53125 -8.21875 L 0.53125 -7.703125 L 0.828125 -7.703125 C 1.09375 -7.703125 1.34375 -7.65625 1.34375 -7.3125 L 1.34375 -0.53125 L 0.53125 -0.53125 L 0.53125 -0.015625 L 3.421875 -0.015625 L 3.421875 -0.53125 L 2.59375 -0.53125 L 2.59375 -8.3125 L 1.21875 -8.3125 Z M 0.53125 -8.21875 "/>
</g>
<g id="glyph-0-15">
<path d="M 0.5 -5.296875 L 0.5 -4.78125 L 0.78125 -4.78125 C 1.015625 -4.78125 1.25 -4.75 1.328125 -4.5 L 1.328125 -1.65625 C 1.328125 -1.296875 1.34375 -0.9375 1.53125 -0.625 C 1.890625 -0.015625 2.75 0.0625 3.375 0.0625 C 4.015625 0.0625 4.8125 -0.1875 5.09375 -0.90625 L 5.109375 0.0625 L 7.171875 0.0625 L 7.171875 -0.53125 L 6.90625 -0.53125 C 6.625 -0.53125 6.34375 -0.5625 6.34375 -0.90625 L 6.34375 -5.390625 L 4.671875 -5.390625 L 4.21875 -5.296875 L 4.21875 -4.78125 L 4.46875 -4.78125 C 4.78125 -4.78125 5.046875 -4.75 5.046875 -4.40625 L 5.046875 -1.796875 C 4.953125 -1.03125 4.453125 -0.328125 3.578125 -0.328125 C 3.15625 -0.328125 2.703125 -0.328125 2.640625 -1.015625 C 2.625 -1.265625 2.625 -1.5 2.625 -1.75 L 2.625 -5.390625 L 0.953125 -5.390625 Z M 0.5 -5.296875 "/>
</g>
<g id="glyph-0-16">
<path d="M 0.6875 -5.3125 L 0.5625 -3.265625 L 1.078125 -3.265625 C 1.09375 -3.71875 1.140625 -4.234375 1.484375 -4.5625 C 1.8125 -4.890625 2.296875 -4.921875 2.75 -4.921875 L 3.796875 -4.921875 C 3.6875 -4.78125 3.578125 -4.640625 3.46875 -4.5 L 2.890625 -3.734375 C 2.3125 -2.9375 1.71875 -2.15625 1.125 -1.375 L 0.515625 -0.546875 C 0.4375 -0.46875 0.359375 -0.34375 0.359375 -0.234375 C 0.359375 -0.0625 0.5 -0.015625 0.609375 -0.015625 L 5.203125 -0.015625 L 5.40625 -2.375 L 4.890625 -2.375 C 4.84375 -1.8125 4.78125 -1.21875 4.390625 -0.828125 C 4.015625 -0.484375 3.484375 -0.4375 2.96875 -0.4375 L 1.953125 -0.4375 C 2.28125 -0.84375 2.5625 -1.265625 2.875 -1.6875 C 3.46875 -2.46875 4.046875 -3.234375 4.625 -4 L 5.25 -4.828125 C 5.3125 -4.90625 5.359375 -5 5.359375 -5.109375 C 5.359375 -5.25 5.265625 -5.3125 5.125 -5.3125 Z M 0.6875 -5.3125 "/>
</g>
<g id="glyph-0-17">
<path d="M 4.6875 -4.28125 C 4.703125 -4.484375 4.75 -4.703125 4.78125 -4.90625 L 5.109375 -7.140625 C 5.15625 -7.34375 5.203125 -7.609375 5.203125 -7.8125 C 5.203125 -8.21875 4.859375 -8.46875 4.484375 -8.46875 C 4.09375 -8.46875 3.78125 -8.203125 3.78125 -7.78125 C 3.78125 -7.59375 3.828125 -7.40625 3.84375 -7.21875 C 3.96875 -6.34375 4.09375 -5.46875 4.25 -4.59375 C 4.25 -4.46875 4.21875 -4.28125 4.40625 -4.28125 Z M 2.015625 -4.28125 L 2.3125 -4.28125 C 2.5 -4.28125 2.515625 -4.90625 2.5625 -5.21875 C 2.65625 -5.875 2.765625 -6.546875 2.859375 -7.21875 C 2.875 -7.40625 2.921875 -7.59375 2.921875 -7.78125 C 2.921875 -8.203125 2.625 -8.46875 2.21875 -8.46875 C 1.84375 -8.46875 1.5 -8.21875 1.5 -7.8125 C 1.5 -7.609375 1.546875 -7.34375 1.59375 -7.140625 L 1.921875 -4.90625 C 1.953125 -4.703125 2 -4.484375 2.015625 -4.28125 Z M 2.015625 -4.28125 "/>
</g>
<g id="glyph-0-18">
<path d="M 4.171875 -8.96875 C 4 -8.90625 3.78125 -8.703125 3.640625 -8.578125 C 2.046875 -7.1875 1.296875 -5.0625 1.296875 -2.984375 C 1.296875 -0.734375 2.15625 1.53125 4.03125 2.890625 C 4.09375 2.953125 4.203125 2.984375 4.296875 2.984375 C 4.390625 2.984375 4.453125 2.9375 4.453125 2.84375 C 4.453125 2.6875 4.140625 2.453125 4.046875 2.328125 C 2.765625 0.84375 2.40625 -1.140625 2.40625 -3.03125 C 2.40625 -4.921875 2.78125 -7.09375 4.203125 -8.515625 C 4.296875 -8.59375 4.46875 -8.734375 4.46875 -8.84375 C 4.46875 -8.9375 4.359375 -8.984375 4.265625 -8.984375 C 4.234375 -8.984375 4.203125 -8.984375 4.171875 -8.96875 Z M 4.171875 -8.96875 "/>
</g>
<g id="glyph-0-19">
<path d="M 0.421875 -8.21875 L 0.421875 -7.703125 L 0.71875 -7.703125 C 0.984375 -7.703125 1.25 -7.65625 1.25 -7.3125 L 1.25 -0.53125 L 0.421875 -0.53125 L 0.421875 -0.015625 L 3.265625 -0.015625 L 3.265625 -0.53125 L 2.4375 -0.53125 L 2.4375 -1.953125 L 2.46875 -2.109375 L 3.078125 -2.640625 L 4.515625 -0.78125 L 4.59375 -0.640625 L 4.5 -0.546875 L 4.203125 -0.53125 L 4.203125 -0.015625 L 6.875 -0.015625 L 6.875 -0.53125 L 6.609375 -0.53125 C 6.34375 -0.53125 6.125 -0.5625 5.90625 -0.859375 L 4.15625 -3.109375 C 4.09375 -3.1875 4.046875 -3.28125 3.96875 -3.34375 L 5.671875 -4.703125 L 5.984375 -4.765625 L 6.578125 -4.8125 L 6.578125 -5.3125 L 4.296875 -5.3125 L 4.296875 -4.8125 L 4.640625 -4.75 L 4.734375 -4.671875 L 4.609375 -4.53125 L 2.484375 -2.828125 L 2.484375 -8.3125 L 0.859375 -8.234375 Z M 0.421875 -8.21875 "/>
</g>
<g id="glyph-0-20">
<path d="M 0.265625 -8.21875 L 0.265625 -7.703125 L 1.125 -7.703125 C 1.265625 -7.703125 1.296875 -7.640625 1.328125 -7.53125 L 1.453125 -7.234375 C 2.109375 -5.46875 2.765625 -3.671875 3.4375 -1.90625 L 4.015625 -0.40625 C 4.109375 -0.171875 4.140625 0.109375 4.5 0.109375 C 4.859375 0.109375 4.875 -0.25 5.015625 -0.546875 C 5.5625 -2 6.078125 -3.453125 6.640625 -4.90625 C 6.734375 -5.15625 6.859375 -5.421875 6.9375 -5.6875 C 7.015625 -5.421875 7.140625 -5.15625 7.234375 -4.90625 C 7.796875 -3.4375 8.3125 -2 8.875 -0.53125 L 9 -0.203125 C 9.125 0.0625 9.1875 0.09375 9.40625 0.09375 L 9.515625 0.09375 C 9.734375 0.0625 9.796875 -0.21875 9.859375 -0.390625 C 10.703125 -2.625 11.546875 -4.859375 12.390625 -7.09375 C 12.53125 -7.453125 12.5 -7.609375 12.890625 -7.65625 C 13.125 -7.703125 13.375 -7.703125 13.609375 -7.703125 L 13.609375 -8.21875 L 10.796875 -8.21875 L 10.796875 -7.703125 L 11.671875 -7.65625 L 11.890625 -7.609375 L 11.96875 -7.546875 L 11.96875 -7.453125 L 9.921875 -2.078125 L 7.8125 -7.703125 L 8.9375 -7.703125 L 8.9375 -8.21875 L 5.171875 -8.21875 L 5.171875 -7.703125 L 6.03125 -7.703125 C 6.15625 -7.703125 6.1875 -7.671875 6.234375 -7.5625 L 6.296875 -7.375 C 6.390625 -7.140625 6.46875 -6.9375 6.546875 -6.703125 C 6.59375 -6.640625 6.640625 -6.53125 6.640625 -6.4375 L 6.640625 -6.40625 C 6.640625 -6.296875 6.578125 -6.1875 6.53125 -6.078125 L 6.28125 -5.421875 C 5.921875 -4.4375 5.546875 -3.453125 5.171875 -2.46875 C 5.125 -2.34375 5.09375 -2.1875 5.015625 -2.078125 L 2.90625 -7.703125 L 4.03125 -7.703125 L 4.03125 -8.21875 Z M 0.265625 -8.21875 "/>
</g>
<g id="glyph-0-21">
<path d="M 0.5 -8.21875 L 0.5 -7.703125 L 0.796875 -7.703125 C 1.078125 -7.703125 1.328125 -7.65625 1.328125 -7.3125 L 1.328125 -0.53125 L 0.5 -0.53125 L 0.5 -0.015625 L 3.453125 -0.015625 L 3.453125 -0.53125 L 2.625 -0.53125 L 2.625 -2.5625 C 2.625 -2.703125 2.625 -2.84375 2.625 -3 C 2.625 -3.9375 3.25 -5 4.34375 -5 C 5.015625 -5 5.046875 -4.234375 5.046875 -3.59375 L 5.046875 -0.53125 L 4.21875 -0.53125 L 4.21875 -0.015625 L 7.171875 -0.015625 L 7.171875 -0.53125 L 6.34375 -0.53125 L 6.34375 -3.53125 C 6.34375 -3.9375 6.328125 -4.375 6.109375 -4.75 C 5.78125 -5.296875 5.09375 -5.390625 4.5 -5.390625 C 3.75 -5.390625 2.84375 -4.921875 2.578125 -4.1875 L 2.5625 -8.3125 L 0.9375 -8.234375 Z M 0.5 -8.21875 "/>
</g>
<g id="glyph-0-22">
<path d="M 0.84375 -8.96875 C 0.78125 -8.9375 0.75 -8.875 0.75 -8.828125 C 0.75 -8.671875 1.03125 -8.5 1.140625 -8.359375 C 2.421875 -6.890625 2.8125 -4.90625 2.8125 -3 C 2.8125 -1.046875 2.421875 1.109375 0.9375 2.59375 C 0.859375 2.671875 0.734375 2.75 0.734375 2.859375 C 0.734375 2.96875 0.859375 2.984375 0.953125 2.984375 L 1 2.984375 C 1.171875 2.96875 1.40625 2.71875 1.546875 2.59375 C 3.15625 1.234375 3.921875 -0.921875 3.921875 -3 C 3.921875 -5.28125 3.03125 -7.484375 1.203125 -8.859375 C 1.125 -8.921875 1.046875 -8.984375 0.9375 -8.984375 C 0.90625 -8.984375 0.875 -8.984375 0.84375 -8.96875 Z M 0.84375 -8.96875 "/>
</g>
<g id="glyph-0-23">
<path d="M 0.453125 -8.15625 L 0.453125 -7.640625 L 1.71875 -7.640625 L 1.71875 -0.53125 L 0.453125 -0.53125 L 0.453125 -0.015625 L 7.921875 -0.015625 L 8.4375 -3.234375 L 7.921875 -3.234375 C 7.796875 -2.515625 7.703125 -1.65625 7.140625 -1.125 C 6.5625 -0.578125 5.765625 -0.53125 5 -0.53125 L 3.296875 -0.53125 L 3.296875 -3.984375 L 3.953125 -3.984375 C 4.484375 -3.984375 5.0625 -3.921875 5.21875 -3.25 C 5.265625 -3.03125 5.265625 -2.8125 5.265625 -2.578125 L 5.78125 -2.578125 L 5.78125 -5.890625 L 5.265625 -5.890625 L 5.265625 -5.765625 C 5.265625 -5.484375 5.265625 -5.203125 5.109375 -4.953125 C 4.875 -4.53125 4.40625 -4.5 3.953125 -4.5 L 3.296875 -4.5 L 3.296875 -7.640625 L 5.0625 -7.640625 C 5.890625 -7.640625 6.6875 -7.5625 7.203125 -6.734375 C 7.4375 -6.296875 7.5 -5.796875 7.546875 -5.3125 L 8.0625 -5.3125 L 7.71875 -8.15625 Z M 0.453125 -8.15625 "/>
</g>
<g id="glyph-0-24">
<path d="M 1.40625 -0.140625 C 0.9375 -0.03125 0.375 0.25 0.375 0.890625 C 0.375 2.125 2.21875 2.390625 3.359375 2.390625 C 4.5 2.390625 6.328125 2.171875 6.328125 0.796875 C 6.328125 -0.734375 4.75 -0.984375 3.53125 -0.984375 C 3.234375 -0.984375 2.90625 -0.96875 2.59375 -0.96875 C 2.453125 -0.96875 2.3125 -0.984375 2.15625 -0.984375 C 1.75 -1 1.421875 -1.34375 1.421875 -1.75 C 1.421875 -1.859375 1.453125 -2.109375 1.5625 -2.15625 C 1.671875 -2.15625 1.828125 -2.0625 1.953125 -2.015625 C 2.21875 -1.9375 2.515625 -1.890625 2.8125 -1.875 L 2.984375 -1.875 C 4 -1.875 5.296875 -2.3125 5.296875 -3.640625 C 5.296875 -4.09375 5.109375 -4.484375 4.8125 -4.796875 L 5.15625 -4.953125 L 5.625 -5.0625 C 5.578125 -4.953125 5.5625 -4.859375 5.5625 -4.765625 C 5.5625 -4.484375 5.78125 -4.296875 6.03125 -4.296875 C 6.3125 -4.296875 6.515625 -4.53125 6.515625 -4.796875 C 6.515625 -5.109375 6.234375 -5.421875 5.90625 -5.46875 L 5.796875 -5.46875 C 5.359375 -5.46875 5.03125 -5.3125 4.6875 -5.109375 C 4.640625 -5.078125 4.59375 -5.015625 4.53125 -5.015625 C 4.453125 -5.015625 4.34375 -5.109375 4.265625 -5.15625 C 3.875 -5.328125 3.390625 -5.40625 2.9375 -5.40625 C 1.90625 -5.40625 0.671875 -4.890625 0.671875 -3.640625 C 0.671875 -3.234375 0.84375 -2.828125 1.109375 -2.515625 C 1.140625 -2.484375 1.25 -2.421875 1.25 -2.359375 C 1.25 -2.234375 1.015625 -2 0.953125 -1.78125 C 0.90625 -1.625 0.890625 -1.46875 0.890625 -1.296875 C 0.890625 -0.859375 1.0625 -0.4375 1.40625 -0.140625 Z M 1.34375 0.96875 L 1.34375 0.875 C 1.34375 0.328125 1.796875 0.125 2.359375 0.125 L 3.546875 0.125 C 4.15625 0.125 5.25 0.125 5.359375 0.828125 L 5.359375 0.875 C 5.359375 1.796875 4.09375 2.015625 3.390625 2.015625 C 2.59375 2.015625 1.46875 1.828125 1.34375 0.96875 Z M 1.953125 -3.3125 L 1.953125 -3.703125 C 1.953125 -4.25 2 -5.015625 3 -5.015625 C 3.84375 -5.015625 4.015625 -4.390625 4.015625 -3.578125 C 4.015625 -2.921875 3.84375 -2.25 2.984375 -2.25 C 2.671875 -2.25 2.359375 -2.359375 2.171875 -2.578125 C 2 -2.796875 1.984375 -3.046875 1.953125 -3.3125 Z M 1.953125 -3.3125 "/>
</g>
<g id="glyph-0-25">
<path d="M 1.8125 -2.65625 L 5.515625 -2.65625 C 5.671875 -2.65625 5.75 -2.75 5.75 -2.90625 C 5.75 -4.1875 5.140625 -5.421875 3.234375 -5.421875 C 2.546875 -5.421875 1.859375 -5.234375 1.3125 -4.8125 C 0.6875 -4.3125 0.375 -3.5 0.375 -2.703125 C 0.375 -0.984375 1.703125 0.0625 3.453125 0.0625 C 4.359375 0.0625 5.359375 -0.359375 5.71875 -1.28125 C 5.734375 -1.3125 5.75 -1.359375 5.75 -1.40625 C 5.75 -1.53125 5.640625 -1.609375 5.484375 -1.609375 C 5.21875 -1.609375 5.21875 -1.328125 5.0625 -1.109375 C 4.734375 -0.625 4.140625 -0.375 3.546875 -0.375 C 2.96875 -0.375 2.40625 -0.609375 2.109375 -1.125 C 1.84375 -1.578125 1.8125 -2.140625 1.8125 -2.65625 Z M 1.8125 -3.015625 C 1.8125 -3.953125 2.15625 -5.03125 3.265625 -5.03125 C 4.125 -5.03125 4.515625 -4.265625 4.609375 -3.515625 C 4.609375 -3.34375 4.609375 -3.171875 4.640625 -3.015625 Z M 2.0625 -5.921875 C 2.671875 -6.09375 3.25 -6.375 3.84375 -6.578125 C 4.109375 -6.6875 4.34375 -6.84375 4.34375 -7.1875 C 4.34375 -7.546875 4.03125 -7.90625 3.65625 -7.90625 C 3.1875 -7.90625 2.1875 -6.734375 1.953125 -6.515625 C 1.90625 -6.46875 1.84375 -6.421875 1.828125 -6.359375 L 1.828125 -6.34375 C 1.828125 -6.296875 1.859375 -6.25 1.890625 -6.21875 Z M 2.0625 -5.921875 "/>
</g>
<g id="glyph-0-26">
<path d="M 0.453125 -8.21875 L 0.453125 -7.703125 L 1.71875 -7.703125 L 1.71875 -0.75 C 1.71875 -0.546875 1.25 -0.53125 0.84375 -0.53125 L 0.453125 -0.53125 L 0.453125 -0.015625 L 3.5625 -0.015625 L 3.5625 -0.53125 C 3.390625 -0.53125 3.203125 -0.515625 3.03125 -0.515625 C 2.625 -0.515625 2.296875 -0.5625 2.296875 -0.8125 L 2.296875 -7.265625 C 2.796875 -6.6875 3.28125 -6.078125 3.765625 -5.484375 C 5.234375 -3.703125 6.6875 -1.921875 8.171875 -0.15625 C 8.265625 -0.046875 8.3125 -0.015625 8.4375 -0.015625 L 8.515625 -0.015625 C 8.671875 -0.015625 8.78125 -0.078125 8.78125 -0.265625 L 8.78125 -7.4375 C 8.78125 -7.671875 9.1875 -7.703125 9.59375 -7.703125 C 9.75 -7.703125 9.90625 -7.703125 10.046875 -7.703125 L 10.046875 -8.21875 L 6.9375 -8.21875 L 6.9375 -7.703125 C 7.09375 -7.703125 7.25 -7.703125 7.421875 -7.703125 C 7.8125 -7.703125 8.203125 -7.671875 8.203125 -7.4375 L 8.203125 -2.359375 L 3.34375 -8.1875 L 3.078125 -8.21875 Z M 0.453125 -8.21875 "/>
</g>
<g id="glyph-0-27">
<path d="M 1.984375 -4.921875 L 1.984375 -4.9375 C 2.265625 -5 2.578125 -5.03125 2.875 -5.03125 C 3.59375 -5.03125 4.203125 -4.671875 4.203125 -3.515625 L 4.203125 -3.125 C 2.734375 -3.125 0.390625 -2.78125 0.390625 -1.265625 C 0.390625 -0.203125 1.734375 0.0625 2.671875 0.0625 L 2.796875 0.0625 C 3.421875 0.03125 4.140625 -0.359375 4.34375 -0.9375 C 4.390625 -0.78125 4.34375 -0.609375 4.421875 -0.4375 C 4.65625 -0.046875 5.171875 -0.015625 5.59375 -0.015625 L 6.328125 -0.015625 C 6.484375 -0.015625 6.53125 -0.125 6.53125 -0.28125 C 6.53125 -0.4375 6.46875 -0.53125 6.28125 -0.53125 L 6.1875 -0.53125 C 5.921875 -0.546875 5.515625 -0.578125 5.5 -0.84375 L 5.5 -3.484375 C 5.5 -4.21875 5.203125 -4.765625 4.53125 -5.109375 C 4.03125 -5.359375 3.484375 -5.421875 2.921875 -5.421875 C 2.234375 -5.421875 0.859375 -5.390625 0.859375 -4.34375 C 0.859375 -4.03125 1.078125 -3.703125 1.46875 -3.640625 L 1.546875 -3.640625 C 1.921875 -3.640625 2.265625 -3.90625 2.265625 -4.34375 C 2.265625 -4.578125 2.171875 -4.8125 1.984375 -4.921875 Z M 4.203125 -2.796875 L 4.203125 -1.703125 C 4.203125 -0.890625 3.578125 -0.328125 2.828125 -0.328125 C 2.296875 -0.328125 1.734375 -0.6875 1.734375 -1.28125 C 1.734375 -2.3125 2.96875 -2.671875 3.75 -2.765625 C 3.890625 -2.765625 4.046875 -2.765625 4.203125 -2.796875 Z M 1.125 -7.3125 L 1.421875 -7.046875 C 1.671875 -7.296875 1.953125 -7.484375 2.328125 -7.484375 C 2.953125 -7.484375 3.53125 -7.046875 4.171875 -7.046875 L 4.25 -7.046875 C 4.859375 -7.078125 5.203125 -7.625 5.59375 -8.03125 L 5.3125 -8.3125 C 5.015625 -8.0625 4.8125 -7.859375 4.359375 -7.859375 C 3.75 -7.859375 3.171875 -8.3125 2.5625 -8.3125 C 1.875 -8.3125 1.53125 -7.734375 1.125 -7.3125 Z M 1.125 -7.3125 "/>
</g>
<g id="glyph-0-28">
<path d="M 1.578125 -7.515625 C 1.953125 -7.859375 2.484375 -7.984375 2.984375 -7.984375 C 3.421875 -7.984375 4.0625 -7.9375 4.125 -7.296875 C 4.140625 -7.171875 4.140625 -7.046875 4.140625 -6.890625 C 4.140625 -6.28125 3.984375 -6.21875 3.46875 -5.515625 C 3.078125 -4.953125 2.71875 -4.234375 2.71875 -3.53125 L 2.71875 -2.796875 C 2.71875 -2.671875 2.796875 -2.609375 2.9375 -2.609375 L 3.0625 -2.609375 C 3.21875 -2.609375 3.234375 -2.734375 3.234375 -2.84375 L 3.234375 -3.484375 C 3.328125 -4.265625 3.859375 -4.921875 4.5 -5.375 C 5.046875 -5.765625 5.59375 -6.0625 5.59375 -6.8125 C 5.59375 -8.09375 4.140625 -8.375 3.078125 -8.375 C 2.296875 -8.375 1.40625 -8.21875 0.90625 -7.46875 C 0.8125 -7.296875 0.734375 -7.046875 0.734375 -6.84375 C 0.734375 -6.484375 0.96875 -6.125 1.4375 -6.125 C 1.84375 -6.125 2.15625 -6.40625 2.15625 -6.8125 C 2.15625 -7.15625 1.921875 -7.453125 1.578125 -7.515625 Z M 2.875 -1.734375 C 2.4375 -1.65625 2.109375 -1.3125 2.109375 -0.890625 C 2.109375 -0.4375 2.46875 -0.015625 3 -0.015625 L 3.078125 -0.015625 C 3.515625 -0.09375 3.84375 -0.4375 3.84375 -0.859375 C 3.84375 -1.3125 3.484375 -1.734375 2.953125 -1.734375 Z M 2.875 -1.734375 "/>
</g>
<g id="glyph-1-0">
<path d="M 1.09375 -7.203125 L 1.09375 -6.84375 C 1.625 -6.84375 2.078125 -6.9375 2.609375 -7.15625 L 2.609375 -0.890625 C 2.609375 -0.421875 2.140625 -0.34375 1.671875 -0.34375 C 1.484375 -0.34375 1.296875 -0.359375 1.140625 -0.359375 L 1.140625 -0.015625 L 4.890625 -0.015625 L 4.890625 -0.359375 C 4.75 -0.359375 4.546875 -0.34375 4.375 -0.34375 C 3.78125 -0.34375 3.4375 -0.40625 3.4375 -0.921875 L 3.4375 -7.78125 C 3.4375 -7.859375 3.40625 -7.953125 3.28125 -7.953125 C 3.125 -7.953125 2.96875 -7.734375 2.828125 -7.65625 C 2.3125 -7.296875 1.703125 -7.203125 1.09375 -7.203125 Z M 1.09375 -7.203125 "/>
</g>
<g id="glyph-1-1">
<path d="M 1.53125 -1.15625 C 1.28125 -1.109375 1.046875 -0.890625 1.046875 -0.59375 C 1.046875 -0.28125 1.296875 -0.015625 1.609375 -0.015625 C 1.921875 -0.015625 2.203125 -0.25 2.203125 -0.578125 C 2.203125 -0.890625 1.9375 -1.171875 1.625 -1.171875 C 1.59375 -1.171875 1.5625 -1.15625 1.53125 -1.15625 Z M 1.53125 -1.15625 "/>
</g>
<g id="glyph-1-2">
<path d="M 0.484375 -8.171875 L 0.484375 -7.828125 L 0.890625 -7.828125 C 1.28125 -7.828125 1.640625 -7.78125 1.640625 -7.34375 C 1.640625 -7.25 1.625 -7.1875 1.625 -7.109375 L 1.625 -0.890625 C 1.625 -0.40625 1.25 -0.359375 0.859375 -0.359375 L 0.484375 -0.359375 L 0.484375 -0.015625 L 3.734375 -0.015625 L 3.734375 -0.359375 L 3.359375 -0.359375 C 2.890625 -0.359375 2.59375 -0.390625 2.59375 -0.875 L 2.59375 -3.8125 L 4.8125 -3.8125 C 5.9375 -3.90625 7.296875 -4.65625 7.296875 -5.953125 L 7.296875 -6.078125 C 7.203125 -7.53125 5.625 -8.1875 4.390625 -8.1875 C 4.15625 -8.1875 3.9375 -8.171875 3.703125 -8.171875 Z M 2.5625 -4.09375 L 2.5625 -7.390625 C 2.5625 -7.703125 2.6875 -7.828125 3.015625 -7.828125 L 3.90625 -7.828125 C 4.921875 -7.828125 6.1875 -7.75 6.1875 -5.953125 C 6.1875 -5.546875 6.140625 -5.078125 5.875 -4.75 C 5.46875 -4.203125 4.765625 -4.09375 4.140625 -4.09375 Z M 2.5625 -4.09375 "/>
</g>
<g id="glyph-1-3">
<path d="M 1.265625 -2.78125 L 4.6875 -2.78125 C 4.8125 -2.78125 4.859375 -2.828125 4.859375 -2.953125 C 4.859375 -4.1875 4.203125 -5.328125 2.796875 -5.328125 C 1.359375 -5.328125 0.34375 -4.03125 0.34375 -2.640625 C 0.34375 -1.59375 0.90625 -0.53125 1.953125 -0.09375 C 2.21875 0.03125 2.515625 0.109375 2.828125 0.109375 L 2.859375 0.109375 C 3.734375 0.109375 4.578125 -0.421875 4.828125 -1.296875 C 4.84375 -1.34375 4.859375 -1.390625 4.859375 -1.4375 C 4.859375 -1.5 4.796875 -1.546875 4.734375 -1.546875 C 4.59375 -1.546875 4.53125 -1.234375 4.453125 -1.078125 C 4.140625 -0.53125 3.578125 -0.15625 2.9375 -0.15625 C 2.484375 -0.15625 2.078125 -0.40625 1.796875 -0.734375 C 1.3125 -1.3125 1.265625 -2.0625 1.265625 -2.78125 Z M 1.28125 -3.015625 C 1.28125 -3.921875 1.78125 -5.09375 2.765625 -5.09375 C 3.828125 -5.09375 4.109375 -3.859375 4.109375 -3.015625 Z M 1.28125 -3.015625 "/>
</g>
<g id="glyph-1-4">
<path d="M 3.84375 -4.84375 L 3.828125 -4.84375 C 3.5 -5.140625 3.03125 -5.265625 2.609375 -5.265625 C 1.703125 -5.265625 0.71875 -4.65625 0.71875 -3.53125 C 0.71875 -3.140625 0.859375 -2.75 1.125 -2.453125 C 1.15625 -2.421875 1.21875 -2.359375 1.21875 -2.296875 C 1.21875 -2.234375 1.140625 -2.15625 1.125 -2.109375 C 0.984375 -1.875 0.890625 -1.59375 0.890625 -1.3125 C 0.890625 -0.9375 1.0625 -0.484375 1.40625 -0.28125 C 0.859375 -0.125 0.328125 0.328125 0.328125 0.921875 C 0.328125 2.015625 1.890625 2.4375 2.90625 2.4375 C 3.875 2.4375 5.515625 2.09375 5.515625 0.90625 C 5.515625 -0.5625 4.046875 -0.78125 3.078125 -0.78125 L 2.15625 -0.78125 C 1.625 -0.78125 1.234375 -1.046875 1.234375 -1.5625 L 1.234375 -1.609375 C 1.25 -1.8125 1.328125 -1.984375 1.421875 -2.15625 C 1.765625 -1.96875 2.078125 -1.8125 2.46875 -1.796875 L 2.5625 -1.796875 C 3.515625 -1.796875 4.3125 -2.375 4.46875 -3.390625 L 4.46875 -3.53125 C 4.46875 -3.9375 4.328125 -4.21875 4.109375 -4.5625 C 4.078125 -4.609375 4.046875 -4.640625 4.046875 -4.6875 L 4.046875 -4.703125 C 4.125 -4.953125 4.796875 -5.15625 5.0625 -5.15625 C 5.109375 -5.15625 5.15625 -5.15625 5.21875 -5.140625 C 5.109375 -5.078125 5.03125 -4.96875 5.03125 -4.84375 C 5.03125 -4.65625 5.1875 -4.53125 5.359375 -4.53125 C 5.546875 -4.53125 5.671875 -4.671875 5.671875 -4.859375 L 5.671875 -4.921875 C 5.625 -5.203125 5.375 -5.40625 5.09375 -5.40625 C 4.65625 -5.40625 4.125 -5.21875 3.84375 -4.84375 Z M 0.90625 1 L 0.90625 0.90625 C 0.90625 0.5 1.1875 0.109375 1.578125 -0.046875 C 1.75 -0.109375 1.9375 -0.125 2.109375 -0.125 L 2.921875 -0.125 C 3.71875 -0.125 4.796875 -0.0625 4.921875 0.84375 L 4.921875 0.9375 C 4.921875 1.84375 3.65625 2.1875 2.9375 2.1875 C 2.140625 2.1875 1.03125 1.859375 0.90625 1 Z M 1.546875 -3.296875 L 1.546875 -3.453125 C 1.546875 -4.03125 1.640625 -5.015625 2.578125 -5.015625 C 3.34375 -5.015625 3.640625 -4.265625 3.640625 -3.53125 C 3.640625 -3 3.53125 -2.0625 2.609375 -2.0625 C 1.90625 -2.0625 1.625 -2.640625 1.546875 -3.296875 Z M 1.546875 -3.296875 "/>
</g>
<g id="glyph-1-5">
<path d="M 0.375 -5.140625 L 0.375 -4.796875 L 0.53125 -4.796875 C 1.046875 -4.796875 1.296875 -4.75 1.296875 -4.03125 L 1.296875 -1.640625 C 1.296875 -1.265625 1.296875 -0.890625 1.5 -0.5625 C 1.8125 -0.03125 2.46875 0.125 3.03125 0.125 C 3.671875 0.125 4.375 -0.296875 4.546875 -0.953125 L 4.5625 0.109375 L 6.234375 -0.015625 L 6.234375 -0.359375 L 6 -0.359375 C 5.65625 -0.359375 5.3125 -0.40625 5.3125 -0.9375 L 5.3125 -5.265625 L 3.640625 -5.140625 L 3.640625 -4.796875 L 3.78125 -4.796875 C 4.1875 -4.796875 4.546875 -4.765625 4.546875 -4.203125 L 4.546875 -1.828125 C 4.484375 -0.984375 4.015625 -0.140625 3.078125 -0.140625 C 2.640625 -0.140625 2.21875 -0.25 2.09375 -0.890625 C 2.0625 -1.109375 2.0625 -1.34375 2.0625 -1.578125 L 2.0625 -5.265625 Z M 0.375 -5.140625 "/>
</g>
<g id="glyph-1-6">
<path d="M 1.25 -4.40625 C 1.546875 -4.859375 2.0625 -5.09375 2.59375 -5.09375 C 3.28125 -5.09375 3.828125 -4.40625 3.828125 -3.734375 L 3.828125 -3.09375 C 2.625 -3.09375 0.515625 -2.765625 0.515625 -1.125 L 0.515625 -1 C 0.625 -0.1875 1.609375 0.125 2.3125 0.125 C 2.9375 0.125 3.71875 -0.265625 3.890625 -0.921875 L 3.90625 -0.921875 C 3.9375 -0.359375 4.34375 0.046875 4.828125 0.046875 C 5.328125 0.046875 5.71875 -0.375 5.765625 -0.875 L 5.765625 -1.75 L 5.515625 -1.75 L 5.515625 -1.15625 C 5.515625 -0.8125 5.453125 -0.296875 5.0625 -0.296875 C 4.671875 -0.296875 4.59375 -0.8125 4.59375 -1.109375 C 4.59375 -1.25 4.609375 -1.375 4.609375 -1.5 L 4.609375 -3.171875 C 4.609375 -3.296875 4.609375 -3.4375 4.609375 -3.578125 C 4.609375 -4.703125 3.578125 -5.328125 2.59375 -5.328125 C 1.828125 -5.328125 0.859375 -4.875 0.859375 -3.9375 C 0.859375 -3.59375 1.09375 -3.40625 1.375 -3.40625 C 1.65625 -3.40625 1.859375 -3.640625 1.859375 -3.90625 C 1.859375 -4.203125 1.640625 -4.40625 1.34375 -4.40625 Z M 3.828125 -2.875 L 3.828125 -1.75 C 3.828125 -0.890625 3.28125 -0.125 2.4375 -0.125 C 1.984375 -0.125 1.375 -0.484375 1.375 -1.09375 C 1.375 -2.15625 2.328125 -2.6875 3.328125 -2.828125 C 3.484375 -2.859375 3.65625 -2.84375 3.828125 -2.875 Z M 3.828125 -2.875 "/>
</g>
<g id="glyph-1-7">
<path d="M 3.578125 -8.171875 L 3.578125 -7.828125 L 3.734375 -7.828125 C 4.203125 -7.828125 4.5 -7.8125 4.5 -7.09375 L 4.5 -4.515625 C 4.109375 -4.984375 3.59375 -5.265625 2.984375 -5.265625 C 1.53125 -5.265625 0.421875 -4 0.421875 -2.5625 C 0.421875 -1.296875 1.328125 0.109375 2.875 0.109375 C 3.53125 0.109375 3.984375 -0.171875 4.46875 -0.703125 L 4.46875 0.109375 L 6.15625 -0.015625 L 6.15625 -0.359375 L 5.96875 -0.359375 C 5.609375 -0.359375 5.25 -0.390625 5.25 -0.953125 L 5.25 -8.3125 Z M 1.34375 -2.296875 L 1.34375 -2.46875 C 1.34375 -3.34375 1.453125 -4.25 2.265625 -4.8125 C 2.515625 -4.953125 2.765625 -5.015625 3.03125 -5.015625 C 3.640625 -5.015625 4.484375 -4.546875 4.484375 -3.796875 C 4.484375 -3.640625 4.46875 -3.484375 4.46875 -3.328125 L 4.46875 -1.34375 C 4.46875 -0.671875 3.53125 -0.125 2.9375 -0.125 C 2.0625 -0.125 1.5 -0.96875 1.390625 -1.828125 C 1.359375 -1.984375 1.359375 -2.140625 1.34375 -2.296875 Z M 1.34375 -2.296875 "/>
</g>
<g id="glyph-1-8">
<path d="M 3.390625 -4.953125 C 3.0625 -5.234375 2.671875 -5.328125 2.25 -5.328125 C 1.390625 -5.328125 0.390625 -5 0.390625 -3.84375 L 0.390625 -3.734375 C 0.84375 -1.734375 3.671875 -2.96875 3.671875 -1.203125 C 3.671875 -0.46875 3 -0.125 2.359375 -0.125 C 1.171875 -0.125 0.875 -1.09375 0.671875 -1.921875 C 0.640625 -2 0.609375 -2.0625 0.53125 -2.0625 C 0.421875 -2.0625 0.390625 -1.96875 0.390625 -1.890625 L 0.390625 -0.03125 C 0.390625 0.03125 0.421875 0.109375 0.515625 0.109375 C 0.71875 0.109375 0.890625 -0.40625 1.015625 -0.40625 L 1.03125 -0.40625 C 1.109375 -0.375 1.171875 -0.28125 1.25 -0.234375 C 1.5625 0.015625 1.953125 0.109375 2.359375 0.109375 C 3.234375 0.109375 4.21875 -0.328125 4.21875 -1.53125 C 4.21875 -2.234375 3.65625 -2.875 3 -3.078125 C 2.359375 -3.28125 0.9375 -3.234375 0.9375 -4.203125 C 0.9375 -4.875 1.65625 -5.109375 2.21875 -5.109375 C 2.90625 -5.109375 3.65625 -4.75 3.65625 -3.734375 C 3.65625 -3.625 3.671875 -3.53125 3.796875 -3.53125 C 3.890625 -3.53125 3.921875 -3.609375 3.921875 -3.6875 L 3.921875 -5.1875 C 3.921875 -5.25 3.890625 -5.328125 3.8125 -5.328125 C 3.65625 -5.328125 3.46875 -5.046875 3.390625 -4.953125 Z M 3.390625 -4.953125 "/>
</g>
<g id="glyph-1-9">
<path d="M 4.3125 -4.453125 C 4.28125 -4.453125 4.25 -4.453125 4.21875 -4.453125 C 3.9375 -4.453125 3.734375 -4.234375 3.734375 -3.953125 C 3.734375 -3.65625 3.953125 -3.453125 4.21875 -3.453125 C 4.5 -3.453125 4.734375 -3.640625 4.734375 -3.96875 C 4.734375 -4.953125 3.65625 -5.328125 2.890625 -5.328125 C 1.453125 -5.328125 0.421875 -3.984375 0.421875 -2.59375 C 0.421875 -1.21875 1.453125 0.109375 2.921875 0.109375 C 3.734375 0.109375 4.4375 -0.328125 4.78125 -1.140625 C 4.8125 -1.21875 4.859375 -1.328125 4.859375 -1.421875 L 4.859375 -1.46875 C 4.84375 -1.515625 4.796875 -1.546875 4.75 -1.546875 C 4.5625 -1.546875 4.5625 -1.359375 4.53125 -1.25 C 4.296875 -0.609375 3.6875 -0.15625 3.03125 -0.15625 C 1.75 -0.15625 1.34375 -1.578125 1.34375 -2.5625 C 1.34375 -3.546875 1.65625 -5.0625 2.984375 -5.0625 C 3.46875 -5.0625 4.03125 -4.859375 4.3125 -4.453125 Z M 4.3125 -4.453125 "/>
</g>
<g id="glyph-1-10">
<path d="M 3.71875 -8.96875 C 3.296875 -8.8125 2.515625 -7.765625 2.140625 -7.09375 C 1.453125 -5.84375 1.1875 -4.40625 1.1875 -2.984375 C 1.1875 -0.78125 1.859375 1.40625 3.578125 2.890625 C 3.640625 2.921875 3.71875 2.984375 3.796875 2.984375 C 3.84375 2.984375 3.890625 2.921875 3.890625 2.890625 C 3.890625 2.765625 3.546875 2.5 3.4375 2.34375 C 2.234375 0.921875 1.828125 -1.046875 1.828125 -2.890625 C 1.828125 -4.890625 2.21875 -7.140625 3.703125 -8.640625 C 3.78125 -8.71875 3.890625 -8.796875 3.890625 -8.875 C 3.890625 -8.9375 3.828125 -8.984375 3.765625 -8.984375 C 3.734375 -8.984375 3.734375 -8.984375 3.71875 -8.96875 Z M 3.71875 -8.96875 "/>
</g>
<g id="glyph-1-11">
<path d="M 0.328125 -5.140625 L 0.328125 -4.796875 L 0.546875 -4.796875 C 0.90625 -4.796875 1.25 -4.75 1.25 -4.25 L 1.25 1.25 C 1.25 1.3125 1.25 1.40625 1.25 1.484375 C 1.25 1.9375 0.890625 1.953125 0.5 1.953125 L 0.328125 1.953125 L 0.328125 2.3125 L 2.921875 2.3125 L 2.921875 1.953125 L 2.671875 1.953125 C 2.328125 1.953125 2.015625 1.90625 2.015625 1.484375 L 2.03125 -0.65625 C 2.328125 -0.15625 2.984375 0.109375 3.53125 0.109375 C 4.984375 0.109375 6.078125 -1.1875 6.078125 -2.609375 C 6.078125 -3.9375 5.0625 -5.265625 3.625 -5.265625 C 2.96875 -5.265625 2.421875 -4.953125 2 -4.46875 L 2 -5.265625 Z M 5.140625 -2.390625 C 5.078125 -1.59375 4.796875 -0.6875 4 -0.265625 C 3.8125 -0.171875 3.625 -0.125 3.421875 -0.125 C 2.859375 -0.125 2.015625 -0.6875 2.015625 -1.296875 L 2.015625 -3.28125 C 2.015625 -3.4375 2.015625 -3.578125 2.015625 -3.734375 C 2.015625 -4.40625 2.828125 -5.015625 3.53125 -5.015625 C 4.734375 -5.015625 5.15625 -3.4375 5.15625 -2.609375 C 5.15625 -2.53125 5.15625 -2.46875 5.140625 -2.390625 Z M 5.140625 -2.390625 "/>
</g>
<g id="glyph-1-12">
<path d="M 2.75 -5.328125 C 1.46875 -5.21875 0.34375 -4.09375 0.34375 -2.578125 C 0.34375 -1.21875 1.34375 0.109375 2.921875 0.109375 C 4.359375 0.109375 5.484375 -1.15625 5.484375 -2.5625 C 5.484375 -3.890625 4.5 -5.34375 2.90625 -5.34375 C 2.859375 -5.34375 2.796875 -5.328125 2.75 -5.328125 Z M 1.265625 -2.3125 C 1.25 -2.40625 1.25 -2.5 1.25 -2.59375 C 1.25 -3.421875 1.34375 -4.5 2.265625 -4.9375 C 2.46875 -5.03125 2.6875 -5.078125 2.90625 -5.078125 C 3.359375 -5.078125 3.796875 -4.875 4.09375 -4.515625 C 4.515625 -4.03125 4.5625 -3.359375 4.5625 -2.734375 C 4.5625 -2.0625 4.546875 -1.296875 4.09375 -0.734375 C 3.796875 -0.375 3.359375 -0.15625 2.90625 -0.15625 C 1.90625 -0.15625 1.40625 -1.046875 1.296875 -1.9375 C 1.28125 -2.0625 1.28125 -2.1875 1.265625 -2.3125 Z M 1.265625 -2.3125 "/>
</g>
<g id="glyph-1-13">
<path d="M 0.328125 -5.140625 L 0.328125 -4.796875 L 0.53125 -4.796875 C 0.890625 -4.796875 1.25 -4.75 1.25 -4.203125 L 1.25 -0.859375 C 1.25 -0.421875 1.015625 -0.359375 0.328125 -0.359375 L 0.328125 -0.015625 L 3.125 -0.015625 L 3.125 -0.359375 C 3 -0.359375 2.859375 -0.34375 2.71875 -0.34375 C 2.328125 -0.34375 2 -0.40625 2 -0.84375 L 2 -2.46875 C 2 -3.390625 2.140625 -4.703125 3.125 -5 C 3.21875 -5.015625 3.296875 -5.03125 3.390625 -5.03125 C 3.453125 -5.03125 3.5 -5.015625 3.5625 -5.015625 C 3.375 -4.9375 3.28125 -4.75 3.28125 -4.5625 C 3.28125 -4.296875 3.5 -4.09375 3.734375 -4.09375 C 4.046875 -4.09375 4.21875 -4.34375 4.21875 -4.578125 C 4.21875 -5.015625 3.796875 -5.265625 3.390625 -5.265625 C 2.765625 -5.265625 2.296875 -4.8125 2.0625 -4.296875 C 2.015625 -4.1875 1.953125 -4.0625 1.953125 -3.9375 L 1.9375 -5.265625 Z M 0.328125 -5.140625 "/>
</g>
<g id="glyph-1-14">
<path d="M 0.375 -5.140625 L 0.375 -4.796875 L 0.53125 -4.796875 C 1.046875 -4.796875 1.296875 -4.75 1.296875 -4.03125 L 1.296875 -1.640625 C 1.296875 -1.265625 1.296875 -0.890625 1.5 -0.5625 C 1.8125 -0.03125 2.46875 0.125 3.03125 0.125 C 3.671875 0.125 4.375 -0.296875 4.546875 -0.953125 L 4.5625 0.109375 L 6.234375 -0.015625 L 6.234375 -0.359375 L 6 -0.359375 C 5.65625 -0.359375 5.3125 -0.40625 5.3125 -0.9375 L 5.3125 -5.265625 L 3.640625 -5.140625 L 3.640625 -4.796875 L 3.78125 -4.796875 C 4.1875 -4.796875 4.546875 -4.765625 4.546875 -4.203125 L 4.546875 -1.828125 C 4.484375 -0.984375 4.015625 -0.140625 3.078125 -0.140625 C 2.640625 -0.140625 2.21875 -0.25 2.09375 -0.890625 C 2.0625 -1.109375 2.0625 -1.34375 2.0625 -1.578125 L 2.0625 -5.265625 Z M 2.25 -6.078125 C 2.28125 -6.03125 2.34375 -5.90625 2.421875 -5.90625 L 2.4375 -5.90625 C 2.5 -5.90625 2.5625 -5.953125 2.609375 -5.984375 L 2.921875 -6.171875 C 3.265625 -6.375 3.609375 -6.578125 3.953125 -6.796875 C 4.15625 -6.890625 4.40625 -7.015625 4.40625 -7.28125 C 4.40625 -7.5 4.21875 -7.671875 4 -7.671875 C 3.78125 -7.671875 3.625 -7.453125 3.484375 -7.296875 L 2.984375 -6.8125 C 2.734375 -6.578125 2.5 -6.328125 2.25 -6.078125 Z M 2.25 -6.078125 "/>
</g>
<g id="glyph-1-15">
<path d="M 0.390625 -8.171875 L 0.390625 -7.828125 L 0.609375 -7.828125 C 0.984375 -7.828125 1.296875 -7.78125 1.296875 -7.21875 L 1.296875 -0.84375 C 1.296875 -0.40625 0.984375 -0.359375 0.65625 -0.359375 L 0.390625 -0.359375 L 0.390625 -0.015625 L 2.96875 -0.015625 L 2.96875 -0.359375 L 2.671875 -0.359375 C 2.328125 -0.359375 2.0625 -0.390625 2.0625 -0.828125 L 2.0625 -8.3125 Z M 0.390625 -8.171875 "/>
</g>
<g id="glyph-1-16">
<path d="M 1.75 -7.359375 C 1.75 -6.59375 1.4375 -5.046875 0.21875 -5.046875 L 0.21875 -4.8125 L 1.234375 -4.8125 L 1.234375 -2.109375 C 1.234375 -1.9375 1.21875 -1.765625 1.21875 -1.609375 C 1.21875 -0.53125 1.765625 0.109375 2.765625 0.109375 C 3.6875 0.109375 3.890625 -0.921875 3.890625 -1.65625 L 3.890625 -2.171875 L 3.640625 -2.171875 C 3.640625 -2 3.640625 -1.8125 3.640625 -1.640625 C 3.640625 -1.125 3.546875 -0.15625 2.828125 -0.15625 C 2.140625 -0.15625 2.015625 -0.984375 2.015625 -1.5625 L 2.015625 -4.8125 L 3.6875 -4.8125 L 3.6875 -5.15625 L 2.015625 -5.15625 L 2.015625 -7.359375 Z M 1.75 -7.359375 "/>
</g>
<g id="glyph-1-17">
<path d="M 0.4375 -5.140625 L 0.4375 -4.796875 L 0.640625 -4.796875 C 1.015625 -4.796875 1.296875 -4.734375 1.296875 -4.203125 L 1.296875 -0.859375 C 1.296875 -0.421875 1.078125 -0.359375 0.390625 -0.359375 L 0.390625 -0.015625 L 2.875 -0.015625 L 2.875 -0.359375 L 2.703125 -0.359375 C 2.359375 -0.359375 2.0625 -0.375 2.0625 -0.78125 L 2.0625 -5.265625 Z M 1.40625 -7.9375 C 1.09375 -7.890625 0.921875 -7.625 0.921875 -7.375 C 0.921875 -7.125 1.109375 -6.796875 1.484375 -6.796875 C 1.859375 -6.796875 2.078125 -7.078125 2.078125 -7.359375 C 2.078125 -7.609375 1.890625 -7.953125 1.515625 -7.953125 C 1.484375 -7.953125 1.453125 -7.9375 1.40625 -7.9375 Z M 1.40625 -7.9375 "/>
</g>
<g id="glyph-1-18">
<path d="M 0.375 -5.140625 L 0.375 -4.796875 L 0.609375 -4.796875 C 0.953125 -4.796875 1.296875 -4.75 1.296875 -4.203125 L 1.296875 -0.859375 C 1.296875 -0.421875 1.0625 -0.359375 0.375 -0.359375 L 0.375 -0.015625 L 2.96875 -0.015625 L 2.96875 -0.359375 L 2.703125 -0.359375 C 2.359375 -0.359375 2.0625 -0.40625 2.0625 -0.84375 L 2.0625 -3.03125 C 2.0625 -3.859375 2.484375 -5.03125 3.65625 -5.03125 C 4.390625 -5.03125 4.546875 -4.328125 4.546875 -3.625 L 4.546875 -0.8125 C 4.546875 -0.390625 4.203125 -0.359375 3.84375 -0.359375 L 3.640625 -0.359375 L 3.640625 -0.015625 L 6.234375 -0.015625 L 6.234375 -0.359375 L 5.953125 -0.359375 C 5.609375 -0.359375 5.3125 -0.40625 5.3125 -0.84375 L 5.3125 -3.03125 C 5.3125 -3.859375 5.734375 -5.03125 6.90625 -5.03125 C 7.640625 -5.03125 7.796875 -4.328125 7.796875 -3.625 L 7.796875 -0.8125 C 7.796875 -0.390625 7.453125 -0.359375 7.09375 -0.359375 L 6.890625 -0.359375 L 6.890625 -0.015625 L 9.484375 -0.015625 L 9.484375 -0.359375 L 9.203125 -0.359375 C 8.875 -0.359375 8.578125 -0.375 8.578125 -0.828125 L 8.578125 -3.53125 C 8.578125 -3.90625 8.5625 -4.28125 8.359375 -4.609375 C 8.09375 -5.109375 7.53125 -5.265625 7 -5.265625 C 6.265625 -5.265625 5.515625 -4.8125 5.296875 -4.09375 L 5.28125 -4.09375 C 5.203125 -4.921875 4.46875 -5.265625 3.6875 -5.265625 C 2.9375 -5.265625 2.21875 -4.71875 2.015625 -4.046875 L 2.015625 -5.265625 Z M 0.375 -5.140625 "/>
</g>
<g id="glyph-1-19">
<path d="M 4.453125 -0.78125 L 4.46875 1.5 C 4.46875 1.90625 4.234375 1.953125 3.5625 1.953125 L 3.5625 2.3125 L 6.15625 2.3125 L 6.15625 1.953125 L 5.921875 1.953125 C 5.5625 1.953125 5.25 1.921875 5.25 1.46875 L 5.25 -5.265625 L 5.015625 -5.25 L 4.5625 -4.15625 C 4.28125 -4.75 3.765625 -5.265625 3 -5.265625 C 1.515625 -5.265625 0.421875 -4 0.421875 -2.5625 C 0.421875 -1.21875 1.4375 0.109375 2.859375 0.109375 C 3.46875 0.109375 4.140625 -0.234375 4.453125 -0.78125 Z M 1.34375 -2.390625 L 1.34375 -2.515625 C 1.34375 -3.421875 1.703125 -4.671875 2.703125 -4.953125 C 2.796875 -4.984375 2.90625 -5.015625 3.015625 -5.015625 L 3.0625 -5.015625 C 3.796875 -5.015625 4.40625 -4.25 4.5 -3.546875 L 4.5 -1.59375 C 4.5 -0.90625 3.796875 -0.328125 3.296875 -0.171875 C 3.171875 -0.140625 3.03125 -0.125 2.890625 -0.125 C 1.78125 -0.171875 1.421875 -1.625 1.34375 -2.390625 Z M 1.34375 -2.390625 "/>
</g>
<g id="glyph-1-20">
<path d="M 0.375 -8.171875 L 0.375 -7.828125 L 0.59375 -7.828125 C 0.984375 -7.828125 1.296875 -7.78125 1.296875 -7.234375 L 1.296875 -0.84375 C 1.296875 -0.40625 0.984375 -0.359375 0.640625 -0.359375 L 0.375 -0.359375 L 0.375 -0.015625 L 2.96875 -0.015625 L 2.96875 -0.359375 L 2.703125 -0.359375 C 2.359375 -0.359375 2.0625 -0.40625 2.0625 -0.84375 L 2.0625 -3.03125 C 2.0625 -3.859375 2.484375 -5.03125 3.65625 -5.03125 C 4.390625 -5.03125 4.546875 -4.328125 4.546875 -3.625 L 4.546875 -0.8125 C 4.546875 -0.390625 4.203125 -0.359375 3.84375 -0.359375 L 3.640625 -0.359375 L 3.640625 -0.015625 L 6.234375 -0.015625 L 6.234375 -0.359375 L 5.953125 -0.359375 C 5.625 -0.359375 5.3125 -0.375 5.3125 -0.828125 L 5.3125 -3.53125 C 5.3125 -3.921875 5.3125 -4.296875 5.109375 -4.640625 C 4.828125 -5.109375 4.265625 -5.265625 3.734375 -5.265625 C 3.015625 -5.265625 2.265625 -4.828125 2.0625 -4.125 L 2.046875 -8.3125 Z M 0.375 -8.171875 "/>
</g>
<g id="glyph-1-21">
<path d="M 0.703125 -8.96875 C 0.671875 -8.953125 0.65625 -8.921875 0.65625 -8.890625 C 0.65625 -8.734375 0.96875 -8.515625 1.09375 -8.359375 C 2.328125 -6.859375 2.71875 -4.84375 2.71875 -2.921875 C 2.71875 -1.109375 2.328125 0.84375 1.171875 2.28125 L 0.890625 2.609375 C 0.796875 2.6875 0.65625 2.78125 0.65625 2.890625 C 0.65625 2.9375 0.703125 2.96875 0.765625 2.96875 L 0.796875 2.96875 C 0.9375 2.953125 1.15625 2.71875 1.3125 2.5625 C 2.765625 1.09375 3.359375 -0.953125 3.359375 -2.96875 C 3.359375 -5.171875 2.6875 -7.40625 0.9375 -8.875 C 0.890625 -8.921875 0.84375 -8.984375 0.765625 -8.984375 C 0.734375 -8.984375 0.734375 -8.984375 0.703125 -8.96875 Z M 0.703125 -8.96875 "/>
</g>
<g id="glyph-1-22">
<path d="M 0.984375 -6.25 C 1.21875 -7 1.8125 -7.609375 2.625 -7.609375 C 3.6875 -7.609375 4.25 -6.609375 4.25 -5.671875 C 4.25 -4.453125 3.375 -3.46875 2.625 -2.609375 L 1.765625 -1.640625 C 1.515625 -1.359375 1.265625 -1.078125 1.015625 -0.78125 L 0.734375 -0.484375 C 0.671875 -0.375 0.578125 -0.328125 0.578125 -0.171875 C 0.578125 -0.125 0.578125 -0.0625 0.578125 -0.015625 L 4.9375 -0.015625 L 5.25 -2.015625 L 4.984375 -2.015625 C 4.890625 -1.453125 4.921875 -0.890625 4.40625 -0.890625 C 4.078125 -0.890625 3.734375 -0.859375 3.390625 -0.859375 L 1.40625 -0.859375 C 2.03125 -1.484375 2.625 -2.09375 3.28125 -2.671875 C 4.109375 -3.4375 5.25 -4.34375 5.25 -5.59375 C 5.25 -7.09375 4.09375 -7.953125 2.796875 -7.953125 C 1.625 -7.953125 0.578125 -7 0.578125 -5.796875 C 0.578125 -5.46875 0.6875 -5.21875 1.125 -5.140625 C 1.515625 -5.140625 1.71875 -5.421875 1.71875 -5.71875 C 1.71875 -5.984375 1.546875 -6.21875 1.21875 -6.28125 C 1.140625 -6.28125 1.0625 -6.28125 0.984375 -6.25 Z M 0.984375 -6.25 "/>
</g>
<g id="glyph-1-23">
<path d="M 1.21875 -6.875 C 1.515625 -7.390625 2.1875 -7.671875 2.796875 -7.671875 C 3.5 -7.671875 4.015625 -7.21875 4.015625 -6.28125 C 4.015625 -5.5625 3.71875 -4.625 2.96875 -4.40625 C 2.734375 -4.3125 2.46875 -4.375 2.25 -4.296875 L 2.203125 -4.296875 C 2.09375 -4.296875 1.953125 -4.296875 1.953125 -4.1875 C 1.953125 -4.078125 2.03125 -4.046875 2.140625 -4.046875 L 2.265625 -4.046875 C 2.421875 -4.046875 2.5625 -4.0625 2.71875 -4.0625 C 3.84375 -4.0625 4.234375 -3.0625 4.234375 -2.171875 C 4.234375 -1.40625 4.046875 -0.078125 2.859375 -0.078125 C 2.09375 -0.078125 1.375 -0.421875 0.9375 -1.140625 L 1.046875 -1.140625 C 1.421875 -1.140625 1.6875 -1.359375 1.6875 -1.734375 C 1.6875 -2.09375 1.40625 -2.3125 1.046875 -2.3125 L 1 -2.3125 C 0.6875 -2.28125 0.484375 -2.015625 0.484375 -1.71875 C 0.484375 -0.484375 1.71875 0.234375 2.859375 0.234375 C 4.140625 0.234375 5.34375 -0.71875 5.34375 -2.0625 C 5.34375 -3.125 4.40625 -4.125 3.3125 -4.203125 C 4.328125 -4.609375 5.015625 -5.296875 5.015625 -6.328125 C 5.015625 -7.453125 3.765625 -7.953125 2.859375 -7.953125 C 1.953125 -7.953125 0.8125 -7.453125 0.8125 -6.390625 C 0.8125 -6.125 0.9375 -5.84375 1.28125 -5.78125 L 1.359375 -5.78125 C 1.671875 -5.78125 1.90625 -6.03125 1.90625 -6.328125 C 1.90625 -6.640625 1.703125 -6.890625 1.34375 -6.890625 C 1.296875 -6.890625 1.265625 -6.890625 1.21875 -6.875 Z M 1.21875 -6.875 "/>
</g>
<g id="glyph-1-24">
<path d="M 0.375 -0.359375 L 0.375 -0.015625 L 2.734375 -0.015625 L 2.734375 -0.359375 C 2.421875 -0.359375 1.9375 -0.53125 1.9375 -0.9375 C 1.9375 -1.078125 2.015625 -1.21875 2.0625 -1.375 C 2.125 -1.609375 2.21875 -1.828125 2.296875 -2.0625 C 2.40625 -2.359375 2.453125 -2.796875 2.671875 -2.796875 L 5.4375 -2.796875 C 5.59375 -2.796875 5.609375 -2.671875 5.640625 -2.5625 L 5.890625 -1.84375 C 5.984375 -1.5625 6.078125 -1.28125 6.1875 -1 C 6.21875 -0.921875 6.265625 -0.8125 6.265625 -0.71875 C 6.265625 -0.375 5.6875 -0.359375 5.359375 -0.359375 L 5.359375 -0.015625 L 8.390625 -0.015625 L 8.390625 -0.359375 L 8.109375 -0.359375 C 7.84375 -0.359375 7.5625 -0.375 7.40625 -0.53125 C 7.265625 -0.6875 7.203125 -0.921875 7.140625 -1.125 C 6.296875 -3.4375 5.515625 -5.75 4.71875 -8.0625 C 4.65625 -8.265625 4.625 -8.546875 4.375 -8.546875 C 4.234375 -8.546875 4.15625 -8.46875 4.140625 -8.328125 L 4.046875 -8.0625 C 3.296875 -5.84375 2.5 -3.625 1.703125 -1.40625 C 1.53125 -0.84375 1.296875 -0.359375 0.375 -0.359375 Z M 2.671875 -3.140625 L 4.046875 -7.109375 L 5.4375 -3.140625 Z M 2.671875 -3.140625 "/>
</g>
<g id="glyph-1-25">
<path d="M 0.375 -5.140625 L 0.375 -4.796875 L 0.609375 -4.796875 C 0.953125 -4.796875 1.296875 -4.75 1.296875 -4.203125 L 1.296875 -0.859375 C 1.296875 -0.421875 1.0625 -0.359375 0.375 -0.359375 L 0.375 -0.015625 L 2.96875 -0.015625 L 2.96875 -0.359375 L 2.703125 -0.359375 C 2.359375 -0.359375 2.0625 -0.40625 2.0625 -0.84375 L 2.0625 -3.03125 C 2.0625 -3.859375 2.484375 -5.03125 3.65625 -5.03125 C 4.390625 -5.03125 4.546875 -4.328125 4.546875 -3.625 L 4.546875 -0.8125 C 4.546875 -0.390625 4.203125 -0.359375 3.84375 -0.359375 L 3.640625 -0.359375 L 3.640625 -0.015625 L 6.234375 -0.015625 L 6.234375 -0.359375 L 5.953125 -0.359375 C 5.625 -0.359375 5.3125 -0.375 5.3125 -0.828125 L 5.3125 -3.53125 C 5.3125 -3.921875 5.3125 -4.296875 5.109375 -4.625 C 4.84375 -5.109375 4.265625 -5.265625 3.75 -5.265625 C 3.171875 -5.265625 2.671875 -5.0625 2.265625 -4.5 C 2.15625 -4.34375 2.0625 -4.203125 2.015625 -4.046875 L 2.015625 -5.265625 Z M 0.375 -5.140625 "/>
</g>
<g id="glyph-1-26">
<path d="M 0.21875 -5.15625 L 0.21875 -4.8125 L 0.4375 -4.8125 C 0.859375 -4.8125 1.046875 -4.65625 1.1875 -4.28125 L 1.4375 -3.671875 C 1.890625 -2.515625 2.34375 -1.34375 2.828125 -0.203125 C 2.875 -0.078125 2.921875 0.109375 3.078125 0.109375 C 3.25 0.109375 3.296875 -0.078125 3.34375 -0.203125 C 3.8125 -1.390625 4.28125 -2.5625 4.75 -3.734375 C 5.015625 -4.390625 5.3125 -4.8125 5.953125 -4.8125 L 5.953125 -5.15625 L 4.09375 -5.15625 L 4.09375 -4.8125 C 4.375 -4.796875 4.65625 -4.609375 4.65625 -4.296875 C 4.65625 -4.125 4.5625 -3.96875 4.5 -3.828125 C 4.265625 -3.1875 4 -2.5625 3.734375 -1.90625 L 3.5 -1.296875 C 3.453125 -1.171875 3.375 -1.046875 3.359375 -0.921875 C 3.28125 -1 3.265625 -1.125 3.234375 -1.21875 L 3 -1.765625 C 2.671875 -2.59375 2.359375 -3.421875 2.015625 -4.234375 C 1.984375 -4.3125 1.953125 -4.40625 1.953125 -4.5 L 1.953125 -4.546875 C 2.015625 -4.8125 2.359375 -4.8125 2.609375 -4.8125 L 2.609375 -5.15625 Z M 0.21875 -5.15625 "/>
</g>
<g id="glyph-1-27">
<path d="M 1.53125 -5.140625 C 1.28125 -5.09375 1.046875 -4.875 1.046875 -4.578125 C 1.046875 -4.265625 1.296875 -4 1.609375 -4 C 1.921875 -4 2.203125 -4.234375 2.203125 -4.5625 C 2.203125 -4.875 1.9375 -5.15625 1.625 -5.15625 C 1.59375 -5.15625 1.5625 -5.140625 1.53125 -5.140625 Z M 1.53125 -1.15625 C 1.28125 -1.109375 1.046875 -0.890625 1.046875 -0.59375 C 1.046875 -0.28125 1.296875 -0.015625 1.609375 -0.015625 C 1.921875 -0.015625 2.203125 -0.25 2.203125 -0.578125 C 2.203125 -0.890625 1.9375 -1.171875 1.625 -1.171875 C 1.59375 -1.171875 1.5625 -1.15625 1.53125 -1.15625 Z M 1.53125 -1.15625 "/>
</g>
<g id="glyph-1-28">
<path d="M 1.140625 2.09375 C 1.03125 2.109375 0.96875 2.21875 0.96875 2.3125 C 0.96875 2.421875 1.0625 2.515625 1.25 2.515625 L 7.578125 2.515625 C 7.640625 2.515625 7.71875 2.53125 7.796875 2.53125 C 7.953125 2.53125 8.109375 2.46875 8.109375 2.296875 C 8.109375 2.1875 8.03125 2.09375 7.90625 2.078125 L 1.234375 2.078125 C 1.1875 2.078125 1.15625 2.078125 1.140625 2.09375 Z M 1.140625 2.09375 "/>
</g>
<g id="glyph-1-29">
<path d="M 0.328125 -8.171875 L 0.328125 -7.828125 L 0.546875 -7.828125 C 0.9375 -7.828125 1.25 -7.78125 1.25 -7.234375 L 1.25 -0.84375 C 1.25 -0.40625 0.9375 -0.359375 0.59375 -0.359375 L 0.328125 -0.359375 L 0.328125 -0.015625 L 2.875 -0.015625 L 2.875 -0.359375 L 2.59375 -0.359375 C 2.234375 -0.359375 1.953125 -0.40625 1.953125 -0.875 L 1.953125 -2.015625 C 1.953125 -2.3125 2.46875 -2.53125 2.71875 -2.828125 C 3.125 -2.21875 3.578125 -1.640625 3.984375 -1.015625 C 4.046875 -0.90625 4.140625 -0.75 4.140625 -0.625 C 4.140625 -0.40625 3.890625 -0.359375 3.71875 -0.359375 L 3.71875 -0.015625 L 5.96875 -0.015625 L 5.96875 -0.359375 C 5.40625 -0.359375 5.140625 -0.546875 4.65625 -1.296875 C 4.25 -1.875 3.8125 -2.46875 3.4375 -3.046875 C 3.375 -3.125 3.328125 -3.21875 3.25 -3.28125 L 3.25 -3.296875 C 4 -3.84375 4.65625 -4.8125 5.71875 -4.8125 L 5.71875 -5.15625 L 3.609375 -5.15625 L 3.609375 -4.8125 C 3.796875 -4.8125 3.953125 -4.671875 3.953125 -4.5 C 3.953125 -4.171875 3.515625 -3.890625 3.25 -3.65625 C 2.828125 -3.28125 2.40625 -2.921875 2 -2.546875 L 2 -8.3125 Z M 0.328125 -8.171875 "/>
</g>
<g id="glyph-1-30">
<path d="M 0.203125 -8.171875 L 0.203125 -7.828125 L 0.375 -7.828125 C 0.640625 -7.828125 0.9375 -7.8125 1.078125 -7.65625 C 1.203125 -7.5 1.25 -7.265625 1.296875 -7.078125 L 1.65625 -5.96875 C 2.265625 -4.046875 2.921875 -2.140625 3.515625 -0.21875 L 3.578125 0 C 3.625 0.125 3.671875 0.234375 3.796875 0.234375 L 3.84375 0.234375 C 4.078125 0.171875 4.40625 -1.25 4.65625 -1.953125 C 5.09375 -3.265625 5.515625 -4.59375 5.921875 -5.921875 C 5.953125 -6 5.984375 -6.078125 6 -6.1875 L 6.015625 -6.1875 C 6.046875 -5.921875 6.203125 -5.578125 6.28125 -5.296875 C 6.875 -3.515625 7.46875 -1.75 8.015625 0.0625 C 8.046875 0.140625 8.078125 0.21875 8.171875 0.234375 L 8.21875 0.234375 C 8.34375 0.234375 8.390625 0.125 8.421875 0 L 8.5 -0.21875 C 9.21875 -2.46875 9.9375 -4.671875 10.65625 -6.921875 C 10.8125 -7.375 11.03125 -7.828125 11.8125 -7.828125 L 11.8125 -8.171875 L 9.5 -8.171875 L 9.5 -7.828125 C 9.890625 -7.828125 10.453125 -7.65625 10.453125 -7.203125 C 10.453125 -7.015625 10.328125 -6.75 10.25 -6.5625 C 9.65625 -4.8125 9.078125 -3.078125 8.578125 -1.296875 L 8.5625 -1.296875 C 8.453125 -1.796875 8.25 -2.28125 8.09375 -2.765625 C 7.65625 -4.1875 7.1875 -5.609375 6.734375 -7.015625 C 6.6875 -7.140625 6.59375 -7.34375 6.59375 -7.46875 C 6.59375 -7.8125 7.203125 -7.828125 7.515625 -7.828125 L 7.515625 -8.171875 L 4.609375 -8.171875 L 4.609375 -7.828125 L 4.84375 -7.828125 C 5.015625 -7.828125 5.21875 -7.8125 5.359375 -7.75 C 5.625 -7.609375 5.703125 -7.125 5.765625 -6.890625 C 5.8125 -6.8125 5.859375 -6.703125 5.859375 -6.609375 L 5.859375 -6.59375 C 5.828125 -6.4375 5.765625 -6.296875 5.71875 -6.171875 C 5.265625 -4.71875 4.8125 -3.265625 4.328125 -1.8125 C 4.265625 -1.65625 4.203125 -1.484375 4.171875 -1.3125 C 4.09375 -1.4375 4.0625 -1.609375 4.015625 -1.75 C 3.4375 -3.5 2.875 -5.28125 2.3125 -7.046875 L 2.234375 -7.296875 C 2.21875 -7.34375 2.1875 -7.40625 2.1875 -7.46875 C 2.1875 -7.828125 2.78125 -7.828125 3.109375 -7.828125 L 3.109375 -8.171875 Z M 0.203125 -8.171875 "/>
</g>
<g id="glyph-1-31">
<path d="M 1.265625 -2.78125 L 4.6875 -2.78125 C 4.8125 -2.78125 4.859375 -2.828125 4.859375 -2.953125 C 4.859375 -4.1875 4.203125 -5.328125 2.796875 -5.328125 C 1.359375 -5.328125 0.34375 -4.03125 0.34375 -2.640625 C 0.34375 -1.59375 0.90625 -0.53125 1.953125 -0.09375 C 2.21875 0.03125 2.515625 0.109375 2.828125 0.109375 L 2.859375 0.109375 C 3.734375 0.109375 4.578125 -0.421875 4.828125 -1.296875 C 4.84375 -1.34375 4.859375 -1.390625 4.859375 -1.4375 C 4.859375 -1.5 4.796875 -1.546875 4.734375 -1.546875 C 4.59375 -1.546875 4.53125 -1.234375 4.453125 -1.078125 C 4.140625 -0.53125 3.578125 -0.15625 2.9375 -0.15625 C 2.484375 -0.15625 2.078125 -0.40625 1.796875 -0.734375 C 1.3125 -1.3125 1.265625 -2.0625 1.265625 -2.78125 Z M 1.28125 -3.015625 C 1.28125 -3.921875 1.78125 -5.09375 2.765625 -5.09375 C 3.828125 -5.09375 4.109375 -3.859375 4.109375 -3.015625 Z M 1.046875 -6 L 1.046875 -5.984375 C 1.09375 -5.9375 1.15625 -5.84375 1.234375 -5.84375 C 1.28125 -5.84375 1.3125 -5.890625 1.34375 -5.921875 L 1.53125 -6.109375 C 1.78125 -6.359375 2.03125 -6.625 2.28125 -6.875 L 2.484375 -7.078125 C 2.515625 -7.09375 2.546875 -7.140625 2.59375 -7.140625 C 2.640625 -7.140625 2.671875 -7.09375 2.703125 -7.078125 L 2.90625 -6.875 C 3.15625 -6.625 3.40625 -6.359375 3.65625 -6.109375 L 3.84375 -5.921875 C 3.875 -5.890625 3.90625 -5.84375 3.953125 -5.84375 C 4.03125 -5.84375 4.09375 -5.9375 4.140625 -5.984375 L 2.71875 -7.625 L 2.59375 -7.734375 L 2.46875 -7.625 L 2.171875 -7.296875 Z M 1.046875 -6 "/>
</g>
<g id="glyph-1-32">
<path d="M 1.25 -4.40625 C 1.546875 -4.859375 2.0625 -5.09375 2.59375 -5.09375 C 3.28125 -5.09375 3.828125 -4.40625 3.828125 -3.734375 L 3.828125 -3.09375 C 2.625 -3.09375 0.515625 -2.765625 0.515625 -1.125 L 0.515625 -1 C 0.625 -0.1875 1.609375 0.125 2.3125 0.125 C 2.9375 0.125 3.71875 -0.265625 3.890625 -0.921875 L 3.90625 -0.921875 C 3.9375 -0.359375 4.34375 0.046875 4.828125 0.046875 C 5.328125 0.046875 5.71875 -0.375 5.765625 -0.875 L 5.765625 -1.75 L 5.515625 -1.75 L 5.515625 -1.15625 C 5.515625 -0.8125 5.453125 -0.296875 5.0625 -0.296875 C 4.671875 -0.296875 4.59375 -0.8125 4.59375 -1.109375 C 4.59375 -1.25 4.609375 -1.375 4.609375 -1.5 L 4.609375 -3.171875 C 4.609375 -3.296875 4.609375 -3.4375 4.609375 -3.578125 C 4.609375 -4.703125 3.578125 -5.328125 2.59375 -5.328125 C 1.828125 -5.328125 0.859375 -4.875 0.859375 -3.9375 C 0.859375 -3.59375 1.09375 -3.40625 1.375 -3.40625 C 1.65625 -3.40625 1.859375 -3.640625 1.859375 -3.90625 C 1.859375 -4.203125 1.640625 -4.40625 1.34375 -4.40625 Z M 3.828125 -2.875 L 3.828125 -1.75 C 3.828125 -0.890625 3.28125 -0.125 2.4375 -0.125 C 1.984375 -0.125 1.375 -0.484375 1.375 -1.09375 C 1.375 -2.15625 2.328125 -2.6875 3.328125 -2.828125 C 3.484375 -2.859375 3.65625 -2.84375 3.828125 -2.875 Z M 1.859375 -6.078125 C 1.90625 -6.03125 1.953125 -5.90625 2.046875 -5.90625 L 2.0625 -5.90625 C 2.15625 -5.90625 2.390625 -6.078125 2.53125 -6.171875 L 3.578125 -6.78125 C 3.75 -6.890625 4.046875 -7 4.046875 -7.25 C 4.046875 -7.46875 3.84375 -7.671875 3.640625 -7.671875 C 3.40625 -7.671875 3.234375 -7.4375 3.09375 -7.296875 C 2.671875 -6.921875 2.265625 -6.484375 1.859375 -6.078125 Z M 1.859375 -6.078125 "/>
</g>
<g id="glyph-1-33">
<path d="M 6.9375 -7.34375 C 6.34375 -7.984375 5.640625 -8.421875 4.734375 -8.421875 C 2.40625 -8.421875 0.640625 -6.359375 0.640625 -4.09375 C 0.640625 -1.828125 2.375 0.234375 4.71875 0.234375 L 4.90625 0.234375 C 6.375 0.140625 7.640625 -1 7.78125 -2.625 C 7.796875 -2.6875 7.796875 -2.734375 7.796875 -2.796875 C 7.796875 -2.890625 7.78125 -3 7.65625 -3 C 7.46875 -3 7.53125 -2.625 7.484375 -2.421875 C 7.296875 -1.1875 6.234375 -0.109375 4.890625 -0.109375 C 4 -0.109375 3.125 -0.546875 2.5625 -1.25 C 1.90625 -2.046875 1.75 -3.171875 1.75 -4.15625 C 1.75 -4.90625 1.859375 -5.734375 2.234375 -6.421875 C 2.75 -7.390625 3.734375 -8.078125 4.875 -8.078125 C 6.390625 -8.078125 7.203125 -6.625 7.4375 -5.375 C 7.453125 -5.265625 7.421875 -5.03125 7.625 -5.03125 C 7.75 -5.03125 7.796875 -5.09375 7.796875 -5.1875 L 7.796875 -8.28125 C 7.796875 -8.359375 7.75 -8.421875 7.671875 -8.421875 C 7.578125 -8.421875 7.515625 -8.296875 7.46875 -8.21875 L 7.140625 -7.6875 C 7.0625 -7.5625 7 -7.453125 6.9375 -7.34375 Z M 6.9375 -7.34375 "/>
</g>
<g id="glyph-1-34">
<path d="M 0.125 -2.90625 L 0.125 -2.265625 L 3.234375 -2.265625 L 3.234375 -2.90625 Z M 0.125 -2.90625 "/>
</g>
<g id="glyph-1-35">
<path d="M 0.921875 -1.484375 C 0.984375 -1.46875 1.046875 -1.453125 1.125 -1.453125 C 1.4375 -1.453125 1.65625 -1.6875 1.65625 -2 C 1.65625 -2.296875 1.421875 -2.515625 1.140625 -2.515625 C 0.859375 -2.515625 0.59375 -2.328125 0.578125 -2.03125 L 0.578125 -1.953125 C 0.578125 -0.8125 1.5 0.234375 2.71875 0.234375 C 4.140625 0.234375 5.25 -1.015625 5.25 -2.453125 C 5.25 -3.640625 4.453125 -4.9375 3.171875 -5.015625 L 3.0625 -5.015625 C 2.53125 -5.015625 1.8125 -4.8125 1.53125 -4.375 L 1.515625 -6.859375 C 1.859375 -6.75 2.21875 -6.6875 2.5625 -6.6875 C 3.34375 -6.6875 4.09375 -7 4.671875 -7.625 C 4.71875 -7.703125 4.796875 -7.75 4.796875 -7.84375 L 4.796875 -7.859375 C 4.78125 -7.921875 4.734375 -7.953125 4.6875 -7.953125 C 4.5 -7.953125 4.25 -7.78125 4.046875 -7.71875 C 3.71875 -7.625 3.359375 -7.578125 3.015625 -7.578125 C 2.46875 -7.578125 2.015625 -7.703125 1.5 -7.875 C 1.453125 -7.90625 1.390625 -7.9375 1.328125 -7.953125 L 1.296875 -7.953125 C 1.25 -7.953125 1.203125 -7.90625 1.1875 -7.84375 L 1.1875 -4.046875 C 1.1875 -3.9375 1.21875 -3.84375 1.34375 -3.84375 C 1.5 -3.84375 1.5625 -4.078125 1.65625 -4.171875 C 2.015625 -4.546875 2.5 -4.78125 3.015625 -4.78125 L 3.078125 -4.78125 C 4.09375 -4.734375 4.28125 -3.375 4.28125 -2.5 C 4.28125 -1.671875 4.203125 -0.640625 3.28125 -0.21875 C 3.078125 -0.125 2.875 -0.078125 2.671875 -0.078125 C 1.890625 -0.078125 1.109375 -0.71875 0.921875 -1.484375 Z M 0.921875 -1.484375 "/>
</g>
<g id="glyph-1-36">
<path d="M 2.765625 -7.953125 C 0.484375 -7.75 0.484375 -4.90625 0.484375 -3.765625 C 0.484375 -2.125 0.8125 0.234375 2.921875 0.234375 L 3.0625 0.234375 C 5.328125 0.03125 5.359375 -2.75 5.359375 -3.921875 C 5.359375 -5.546875 5.015625 -7.96875 2.921875 -7.96875 C 2.875 -7.96875 2.828125 -7.953125 2.765625 -7.953125 Z M 1.40625 -3.125 C 1.390625 -3.21875 1.390625 -3.328125 1.390625 -3.421875 C 1.390625 -4.15625 1.390625 -4.921875 1.453125 -5.671875 C 1.484375 -6.140625 1.546875 -6.671875 1.8125 -7.078125 C 2.0625 -7.453125 2.484375 -7.71875 2.921875 -7.71875 C 4.546875 -7.71875 4.453125 -5.25 4.453125 -4.125 L 4.453125 -3.234375 C 4.453125 -2.359375 4.40625 -1.40625 4.078125 -0.78125 C 3.859375 -0.359375 3.421875 0 2.921875 0 L 2.84375 0 C 1.40625 -0.125 1.5 -2.03125 1.40625 -3.125 Z M 1.40625 -3.125 "/>
</g>
<g id="glyph-1-37">
<path d="M 5.03125 -8.96875 C 4.90625 -8.921875 4.84375 -8.578125 4.75 -8.375 C 3.71875 -5.453125 2.609375 -2.53125 1.546875 0.375 C 1.296875 1.046875 1.0625 1.703125 0.8125 2.359375 L 0.703125 2.65625 C 0.6875 2.71875 0.65625 2.765625 0.65625 2.828125 L 0.65625 2.859375 C 0.65625 2.921875 0.6875 2.96875 0.75 2.96875 L 0.78125 2.96875 C 0.90625 2.9375 1 2.53125 1.09375 2.328125 C 2.15625 -0.6875 3.328125 -3.6875 4.40625 -6.6875 C 4.640625 -7.359375 4.859375 -8.03125 5.140625 -8.6875 C 5.15625 -8.734375 5.171875 -8.796875 5.171875 -8.84375 L 5.171875 -8.875 C 5.171875 -8.921875 5.125 -8.96875 5.0625 -8.96875 Z M 5.03125 -8.96875 "/>
</g>
<g id="glyph-1-38">
<path d="M 1.265625 -2.78125 L 4.6875 -2.78125 C 4.8125 -2.78125 4.859375 -2.828125 4.859375 -2.953125 C 4.859375 -4.1875 4.203125 -5.328125 2.796875 -5.328125 C 1.359375 -5.328125 0.34375 -4.03125 0.34375 -2.640625 C 0.34375 -1.59375 0.90625 -0.53125 1.953125 -0.09375 C 2.21875 0.03125 2.515625 0.109375 2.828125 0.109375 L 2.859375 0.109375 C 3.734375 0.109375 4.578125 -0.421875 4.828125 -1.296875 C 4.84375 -1.34375 4.859375 -1.390625 4.859375 -1.4375 C 4.859375 -1.5 4.796875 -1.546875 4.734375 -1.546875 C 4.59375 -1.546875 4.53125 -1.234375 4.453125 -1.078125 C 4.140625 -0.53125 3.578125 -0.15625 2.9375 -0.15625 C 2.484375 -0.15625 2.078125 -0.40625 1.796875 -0.734375 C 1.3125 -1.3125 1.265625 -2.0625 1.265625 -2.78125 Z M 1.28125 -3.015625 C 1.28125 -3.921875 1.78125 -5.09375 2.765625 -5.09375 C 3.828125 -5.09375 4.109375 -3.859375 4.109375 -3.015625 Z M 1.546875 -6.078125 C 1.578125 -6.03125 1.640625 -5.90625 1.71875 -5.90625 L 1.734375 -5.90625 C 1.84375 -5.90625 2.0625 -6.078125 2.21875 -6.171875 C 2.5625 -6.390625 2.90625 -6.59375 3.25 -6.796875 C 3.4375 -6.890625 3.6875 -7 3.6875 -7.265625 C 3.6875 -7.484375 3.515625 -7.671875 3.296875 -7.671875 C 3.078125 -7.671875 2.921875 -7.46875 2.765625 -7.3125 Z M 1.546875 -6.078125 "/>
</g>
<g id="glyph-1-39">
<path d="M 0.328125 -2.015625 L 3.46875 -2.015625 L 3.46875 -0.875 C 3.46875 -0.375 3.125 -0.359375 2.328125 -0.359375 L 2.328125 -0.015625 L 5.453125 -0.015625 L 5.453125 -0.359375 C 5.3125 -0.359375 5.15625 -0.34375 5.03125 -0.34375 C 4.640625 -0.34375 4.3125 -0.40625 4.3125 -0.875 L 4.3125 -2.015625 L 5.515625 -2.015625 L 5.515625 -2.359375 L 4.3125 -2.359375 L 4.3125 -7.921875 C 4.3125 -8.03125 4.25 -8.078125 4.15625 -8.078125 C 3.90625 -8.078125 3.453125 -7.203125 3.171875 -6.78125 C 2.3125 -5.4375 1.4375 -4.109375 0.578125 -2.765625 L 0.4375 -2.53125 C 0.359375 -2.421875 0.3125 -2.34375 0.3125 -2.21875 C 0.3125 -2.140625 0.328125 -2.0625 0.328125 -2.015625 Z M 0.625 -2.359375 L 3.515625 -6.84375 L 3.515625 -2.359375 Z M 0.625 -2.359375 "/>
</g>
<g id="glyph-1-40">
<path d="M 4.421875 -3.125 L 0.84375 -3.125 C 0.75 -3.125 0.65625 -3.09375 0.65625 -3 L 0.65625 -2.984375 C 0.65625 -2.875 0.78125 -2.875 0.859375 -2.875 L 4.421875 -2.875 L 4.421875 0.703125 C 4.421875 0.78125 4.4375 0.890625 4.546875 0.890625 C 4.65625 0.890625 4.65625 0.78125 4.65625 0.703125 L 4.65625 -2.875 L 8.21875 -2.875 C 8.3125 -2.875 8.421875 -2.875 8.421875 -2.984375 L 8.421875 -3 C 8.421875 -3.09375 8.328125 -3.125 8.25 -3.125 L 4.65625 -3.125 L 4.65625 -6.6875 C 4.65625 -6.78125 4.65625 -6.890625 4.546875 -6.890625 C 4.4375 -6.890625 4.421875 -6.78125 4.421875 -6.6875 Z M 4.421875 -3.125 "/>
</g>
<g id="glyph-2-0">
<path d="M 2.75 -5.265625 C 1.578125 -5.109375 0.640625 -4.234375 0.640625 -2.96875 C 0.640625 -1.8125 1.59375 -0.703125 2.921875 -0.703125 C 4.15625 -0.703125 5.203125 -1.75 5.203125 -3 C 5.203125 -4.09375 4.328125 -5.28125 2.921875 -5.28125 C 2.859375 -5.28125 2.8125 -5.265625 2.75 -5.265625 Z M 2.75 -5.265625 "/>
</g>
</g>
<clipPath id="clip-0">
<path clip-rule="nonzero" d="M 0 0 L 415.960938 0 L 415.960938 1 L 0 1 Z M 0 0 "/>
</clipPath>
<clipPath id="clip-1">
<path clip-rule="nonzero" d="M 415 0 L 415.960938 0 L 415.960938 214 L 415 214 Z M 415 0 "/>
</clipPath>
<clipPath id="clip-2">
<path clip-rule="nonzero" d="M 0 213 L 415.960938 213 L 415.960938 214 L 0 214 Z M 0 213 "/>
</clipPath>
</defs>
<g fill="rgb(0%, 0%, 0%)" fill-opacity="1">
<use xlink:href="#glyph-0-0" x="3.887" y="12.138"/>
<use xlink:href="#glyph-0-1" x="13.598209" y="12.138"/>
<use xlink:href="#glyph-0-2" x="20.321813" y="12.138"/>
<use xlink:href="#glyph-0-1" x="31.527422" y="12.138"/>
</g>
<g fill="rgb(0%, 0%, 0%)" fill-opacity="1">
<use xlink:href="#glyph-0-3" x="42.734227" y="12.138"/>
<use xlink:href="#glyph-0-4" x="50.203836" y="12.138"/>
<use xlink:href="#glyph-0-5" x="56.339244" y="12.138"/>
<use xlink:href="#glyph-0-6" x="61.642571" y="12.138"/>
<use xlink:href="#glyph-0-1" x="67.618976" y="12.138"/>
<use xlink:href="#glyph-0-7" x="74.34258" y="12.138"/>
<use xlink:href="#glyph-0-8" x="81.812189" y="12.138"/>
<use xlink:href="#glyph-0-9" x="87.304408" y="12.138"/>
<use xlink:href="#glyph-0-8" x="91.039212" y="12.138"/>
<use xlink:href="#glyph-0-10" x="96.531431" y="12.138"/>
</g>
<g fill="rgb(0%, 0%, 0%)" fill-opacity="1">
<use xlink:href="#glyph-1-0" x="18.197" y="40.027"/>
<use xlink:href="#glyph-1-1" x="24.04907" y="40.027"/>
</g>
<g fill="rgb(0%, 0%, 0%)" fill-opacity="1">
<use xlink:href="#glyph-1-2" x="33.157737" y="40.027"/>
</g>
<g fill="rgb(0%, 0%, 0%)" fill-opacity="1">
<use xlink:href="#glyph-1-3" x="40.785155" y="40.027"/>
<use xlink:href="#glyph-1-4" x="45.986862" y="40.027"/>
<use xlink:href="#glyph-1-5" x="51.838933" y="40.027"/>
<use xlink:href="#glyph-1-3" x="58.340171" y="40.027"/>
</g>
<g fill="rgb(0%, 0%, 0%)" fill-opacity="1">
<use xlink:href="#glyph-1-6" x="67.451228" y="40.027"/>
</g>
<g fill="rgb(0%, 0%, 0%)" fill-opacity="1">
<use xlink:href="#glyph-0-6" x="77.2" y="40.027"/>
<use xlink:href="#glyph-0-1" x="83.176404" y="40.027"/>
<use xlink:href="#glyph-0-11" x="89.900009" y="40.027"/>
</g>
<g fill="rgb(0%, 0%, 0%)" fill-opacity="1">
<use xlink:href="#glyph-0-12" x="96.999007" y="40.027"/>
<use xlink:href="#glyph-0-13" x="102.228211" y="40.027"/>
</g>
<g fill="rgb(0%, 0%, 0%)" fill-opacity="1">
<use xlink:href="#glyph-0-3" x="113.247319" y="40.027"/>
<use xlink:href="#glyph-0-4" x="120.716928" y="40.027"/>
</g>
<g fill="rgb(0%, 0%, 0%)" fill-opacity="1">
<use xlink:href="#glyph-0-14" x="131.335537" y="40.027"/>
<use xlink:href="#glyph-0-15" x="135.070341" y="40.027"/>
<use xlink:href="#glyph-0-16" x="142.53995" y="40.027"/>
</g>
<g fill="rgb(0%, 0%, 0%)" fill-opacity="1">
<use xlink:href="#glyph-1-7" x="152.413" y="40.027"/>
<use xlink:href="#glyph-1-6" x="158.914238" y="40.027"/>
</g>
<g fill="rgb(0%, 0%, 0%)" fill-opacity="1">
<use xlink:href="#glyph-1-8" x="168.663703" y="40.027"/>
<use xlink:href="#glyph-1-5" x="173.279606" y="40.027"/>
<use xlink:href="#glyph-1-6" x="179.780844" y="40.027"/>
</g>
<g fill="rgb(0%, 0%, 0%)" fill-opacity="1">
<use xlink:href="#glyph-1-9" x="189.542265" y="40.027"/>
<use xlink:href="#glyph-1-6" x="194.743972" y="40.027"/>
<use xlink:href="#glyph-1-8" x="200.596043" y="40.027"/>
<use xlink:href="#glyph-1-6" x="205.211945" y="40.027"/>
</g>
<g fill="rgb(0%, 0%, 0%)" fill-opacity="1">
<use xlink:href="#glyph-1-10" x="214.961411" y="40.027"/>
<use xlink:href="#glyph-1-11" x="219.512756" y="40.027"/>
</g>
<g fill="rgb(0%, 0%, 0%)" fill-opacity="1">
<use xlink:href="#glyph-1-12" x="226.336784" y="40.027"/>
</g>
<g fill="rgb(0%, 0%, 0%)" fill-opacity="1">
<use xlink:href="#glyph-1-7" x="232.511644" y="40.027"/>
<use xlink:href="#glyph-1-3" x="239.012882" y="40.027"/>
</g>
<g fill="rgb(0%, 0%, 0%)" fill-opacity="1">
<use xlink:href="#glyph-1-8" x="248.12394" y="40.027"/>
<use xlink:href="#glyph-1-3" x="252.739843" y="40.027"/>
<use xlink:href="#glyph-1-13" x="257.94155" y="40.027"/>
</g>
<g fill="rgb(0%, 0%, 0%)" fill-opacity="1">
<use xlink:href="#glyph-1-6" x="266.39029" y="40.027"/>
</g>
<g fill="rgb(0%, 0%, 0%)" fill-opacity="1">
<use xlink:href="#glyph-1-14" x="276.139756" y="40.027"/>
<use xlink:href="#glyph-1-15" x="282.640994" y="40.027"/>
<use xlink:href="#glyph-1-16" x="285.891612" y="40.027"/>
<use xlink:href="#glyph-1-17" x="290.442957" y="40.027"/>
<use xlink:href="#glyph-1-18" x="293.693576" y="40.027"/>
<use xlink:href="#glyph-1-6" x="303.446628" y="40.027"/>
</g>
<g fill="rgb(0%, 0%, 0%)" fill-opacity="1">
<use xlink:href="#glyph-1-19" x="313.208049" y="40.027"/>
<use xlink:href="#glyph-1-5" x="319.385301" y="40.027"/>
<use xlink:href="#glyph-1-3" x="325.886539" y="40.027"/>
</g>
<g fill="rgb(0%, 0%, 0%)" fill-opacity="1">
<use xlink:href="#glyph-1-9" x="334.985641" y="40.027"/>
</g>
<g fill="rgb(0%, 0%, 0%)" fill-opacity="1">
<use xlink:href="#glyph-1-20" x="339.864558" y="40.027"/>
<use xlink:href="#glyph-1-3" x="346.365796" y="40.027"/>
<use xlink:href="#glyph-1-4" x="351.567504" y="40.027"/>
<use xlink:href="#glyph-1-12" x="357.419574" y="40.027"/>
<use xlink:href="#glyph-1-5" x="363.271644" y="40.027"/>
<use xlink:href="#glyph-1-21" x="369.772882" y="40.027"/>
<use xlink:href="#glyph-1-1" x="374.324227" y="40.027"/>
</g>
<g fill="rgb(0%, 0%, 0%)" fill-opacity="1">
<use xlink:href="#glyph-1-22" x="18.197" y="67.917"/>
<use xlink:href="#glyph-1-1" x="24.04907" y="67.917"/>
</g>
<g fill="rgb(0%, 0%, 0%)" fill-opacity="1">
<use xlink:href="#glyph-1-2" x="33.157737" y="67.917"/>
<use xlink:href="#glyph-1-13" x="41.1199" y="67.917"/>
<use xlink:href="#glyph-1-12" x="45.671245" y="67.917"/>
</g>
<g fill="rgb(0%, 0%, 0%)" fill-opacity="1">
<use xlink:href="#glyph-1-9" x="51.846106" y="67.917"/>
<use xlink:href="#glyph-1-5" x="57.047813" y="67.917"/>
<use xlink:href="#glyph-1-13" x="63.549051" y="67.917"/>
<use xlink:href="#glyph-1-3" x="68.100396" y="67.917"/>
</g>
<g fill="rgb(0%, 0%, 0%)" fill-opacity="1">
<use xlink:href="#glyph-1-12" x="77.199499" y="67.917"/>
</g>
<g fill="rgb(0%, 0%, 0%)" fill-opacity="1">
<use xlink:href="#glyph-1-9" x="86.948964" y="67.917"/>
<use xlink:href="#glyph-1-6" x="92.150672" y="67.917"/>
<use xlink:href="#glyph-1-18" x="98.002742" y="67.917"/>
<use xlink:href="#glyph-1-11" x="107.755794" y="67.917"/>
</g>
<g fill="rgb(0%, 0%, 0%)" fill-opacity="1">
<use xlink:href="#glyph-1-12" x="114.579822" y="67.917"/>
</g>
<g fill="rgb(0%, 0%, 0%)" fill-opacity="1">
<use xlink:href="#glyph-0-17" x="124.338" y="67.917"/>
<use xlink:href="#glyph-0-0" x="131.061604" y="67.917"/>
<use xlink:href="#glyph-0-1" x="140.772813" y="67.917"/>
<use xlink:href="#glyph-0-11" x="147.496418" y="67.917"/>
<use xlink:href="#glyph-0-5" x="154.966027" y="67.917"/>
<use xlink:href="#glyph-0-15" x="160.269354" y="67.917"/>
<use xlink:href="#glyph-0-2" x="167.738963" y="67.917"/>
<use xlink:href="#glyph-0-1" x="178.944572" y="67.917"/>
</g>
<g fill="rgb(0%, 0%, 0%)" fill-opacity="1">
<use xlink:href="#glyph-0-18" x="190.151376" y="67.917"/>
<use xlink:href="#glyph-0-19" x="195.38058" y="67.917"/>
</g>
<g fill="rgb(0%, 0%, 0%)" fill-opacity="1">
<use xlink:href="#glyph-0-20" x="201.353398" y="67.917"/>
<use xlink:href="#glyph-0-21" x="215.24295" y="67.917"/>
<use xlink:href="#glyph-0-22" x="222.712559" y="67.917"/>
<use xlink:href="#glyph-0-17" x="227.941763" y="67.917"/>
</g>
<g fill="rgb(0%, 0%, 0%)" fill-opacity="1">
<use xlink:href="#glyph-1-12" x="238.568" y="67.917"/>
<use xlink:href="#glyph-1-5" x="244.42007" y="67.917"/>
</g>
<g fill="rgb(0%, 0%, 0%)" fill-opacity="1">
<use xlink:href="#glyph-0-17" x="254.822" y="67.917"/>
<use xlink:href="#glyph-0-23" x="261.545604" y="67.917"/>
<use xlink:href="#glyph-0-11" x="270.370933" y="67.917"/>
<use xlink:href="#glyph-0-4" x="277.840542" y="67.917"/>
<use xlink:href="#glyph-0-8" x="283.975951" y="67.917"/>
<use xlink:href="#glyph-0-24" x="289.46817" y="67.917"/>
<use xlink:href="#glyph-0-9" x="296.191774" y="67.917"/>
<use xlink:href="#glyph-0-13" x="299.926579" y="67.917"/>
</g>
<g fill="rgb(0%, 0%, 0%)" fill-opacity="1">
<use xlink:href="#glyph-0-23" x="310.945686" y="67.917"/>
<use xlink:href="#glyph-0-14" x="319.771015" y="67.917"/>
<use xlink:href="#glyph-0-25" x="323.50582" y="67.917"/>
<use xlink:href="#glyph-0-12" x="329.641228" y="67.917"/>
<use xlink:href="#glyph-0-8" x="334.870433" y="67.917"/>
<use xlink:href="#glyph-0-9" x="340.362652" y="67.917"/>
<use xlink:href="#glyph-0-6" x="344.097456" y="67.917"/>
<use xlink:href="#glyph-0-13" x="350.07386" y="67.917"/>
</g>
<g fill="rgb(0%, 0%, 0%)" fill-opacity="1">
<use xlink:href="#glyph-0-18" x="361.092968" y="67.917"/>
<use xlink:href="#glyph-0-19" x="366.322173" y="67.917"/>
</g>
<g fill="rgb(0%, 0%, 0%)" fill-opacity="1">
<use xlink:href="#glyph-0-20" x="372.294991" y="67.917"/>
<use xlink:href="#glyph-0-21" x="386.184542" y="67.917"/>
<use xlink:href="#glyph-0-22" x="393.654151" y="67.917"/>
<use xlink:href="#glyph-0-17" x="398.883356" y="67.917"/>
</g>
<g fill="rgb(0%, 0%, 0%)" fill-opacity="1">
<use xlink:href="#glyph-1-1" x="405.609" y="67.917"/>
</g>
<g fill="rgb(0%, 0%, 0%)" fill-opacity="1">
<use xlink:href="#glyph-1-23" x="18.197" y="95.807"/>
<use xlink:href="#glyph-1-1" x="24.04907" y="95.807"/>
</g>
<g fill="rgb(0%, 0%, 0%)" fill-opacity="1">
<use xlink:href="#glyph-1-24" x="33.157737" y="95.807"/>
<use xlink:href="#glyph-1-25" x="41.930463" y="95.807"/>
<use xlink:href="#glyph-1-12" x="48.431701" y="95.807"/>
<use xlink:href="#glyph-1-16" x="54.283771" y="95.807"/>
<use xlink:href="#glyph-1-3" x="58.835116" y="95.807"/>
</g>
<g fill="rgb(0%, 0%, 0%)" fill-opacity="1">
<use xlink:href="#glyph-1-12" x="67.934219" y="95.807"/>
</g>
<g fill="rgb(0%, 0%, 0%)" fill-opacity="1">
<use xlink:href="#glyph-1-26" x="77.683684" y="95.807"/>
</g>
<g fill="rgb(0%, 0%, 0%)" fill-opacity="1">
<use xlink:href="#glyph-1-6" x="83.215355" y="95.807"/>
<use xlink:href="#glyph-1-15" x="89.067426" y="95.807"/>
<use xlink:href="#glyph-1-12" x="92.318044" y="95.807"/>
<use xlink:href="#glyph-1-13" x="98.170115" y="95.807"/>
<use xlink:href="#glyph-1-27" x="102.72146" y="95.807"/>
</g>
<g fill="rgb(0%, 0%, 0%)" fill-opacity="1">
<use xlink:href="#glyph-1-28" x="111.17259" y="95.807"/>
<use xlink:href="#glyph-1-28" x="120.27528" y="95.807"/>
<use xlink:href="#glyph-1-28" x="129.377969" y="95.807"/>
<use xlink:href="#glyph-1-28" x="138.480658" y="95.807"/>
<use xlink:href="#glyph-1-28" x="147.583348" y="95.807"/>
<use xlink:href="#glyph-1-28" x="156.686037" y="95.807"/>
<use xlink:href="#glyph-1-28" x="165.788726" y="95.807"/>
<use xlink:href="#glyph-1-28" x="174.891415" y="95.807"/>
<use xlink:href="#glyph-1-28" x="183.994105" y="95.807"/>
<use xlink:href="#glyph-1-28" x="193.096794" y="95.807"/>
</g>
<g fill="rgb(0%, 0%, 0%)" fill-opacity="1">
<use xlink:href="#glyph-1-29" x="206.096878" y="95.807"/>
</g>
<g fill="rgb(0%, 0%, 0%)" fill-opacity="1">
<use xlink:href="#glyph-1-30" x="211.293804" y="95.807"/>
<use xlink:href="#glyph-1-20" x="223.318344" y="95.807"/>
</g>
<g fill="rgb(0%, 0%, 0%)" fill-opacity="1">
<use xlink:href="#glyph-1-10" x="233.728932" y="95.807"/>
<use xlink:href="#glyph-1-9" x="238.280277" y="95.807"/>
<use xlink:href="#glyph-1-12" x="243.481984" y="95.807"/>
<use xlink:href="#glyph-1-25" x="249.334055" y="95.807"/>
<use xlink:href="#glyph-1-8" x="255.835292" y="95.807"/>
<use xlink:href="#glyph-1-5" x="260.451195" y="95.807"/>
<use xlink:href="#glyph-1-18" x="266.952433" y="95.807"/>
<use xlink:href="#glyph-1-12" x="276.705485" y="95.807"/>
</g>
<g fill="rgb(0%, 0%, 0%)" fill-opacity="1">
<use xlink:href="#glyph-1-7" x="286.454951" y="95.807"/>
<use xlink:href="#glyph-1-12" x="292.956188" y="95.807"/>
</g>
<g fill="rgb(0%, 0%, 0%)" fill-opacity="1">
<use xlink:href="#glyph-1-18" x="302.705654" y="95.807"/>
<use xlink:href="#glyph-1-31" x="312.458706" y="95.807"/>
<use xlink:href="#glyph-1-8" x="317.660414" y="95.807"/>
<use xlink:href="#glyph-1-21" x="322.276316" y="95.807"/>
</g>
<g fill="rgb(0%, 0%, 0%)" fill-opacity="1">
<use xlink:href="#glyph-0-26" x="3.887" y="123.697"/>
<use xlink:href="#glyph-0-27" x="14.400403" y="123.697"/>
<use xlink:href="#glyph-0-1" x="20.936311" y="123.697"/>
</g>
<g fill="rgb(0%, 0%, 0%)" fill-opacity="1">
<use xlink:href="#glyph-0-12" x="32.143115" y="123.697"/>
<use xlink:href="#glyph-0-4" x="37.37232" y="123.697"/>
<use xlink:href="#glyph-0-2" x="43.507728" y="123.697"/>
</g>
<g fill="rgb(0%, 0%, 0%)" fill-opacity="1">
<use xlink:href="#glyph-0-13" x="59.196537" y="123.697"/>
</g>
<g fill="rgb(0%, 0%, 0%)" fill-opacity="1">
<use xlink:href="#glyph-0-6" x="70.215645" y="123.697"/>
<use xlink:href="#glyph-0-1" x="76.19205" y="123.697"/>
<use xlink:href="#glyph-0-11" x="82.915654" y="123.697"/>
</g>
<g fill="rgb(0%, 0%, 0%)" fill-opacity="1">
<use xlink:href="#glyph-0-12" x="90.002697" y="123.697"/>
<use xlink:href="#glyph-0-13" x="95.231901" y="123.697"/>
</g>
<g fill="rgb(0%, 0%, 0%)" fill-opacity="1">
<use xlink:href="#glyph-0-4" x="106.251009" y="123.697"/>
<use xlink:href="#glyph-0-2" x="112.386418" y="123.697"/>
</g>
<g fill="rgb(0%, 0%, 0%)" fill-opacity="1">
<use xlink:href="#glyph-0-2" x="128.075227" y="123.697"/>
<use xlink:href="#glyph-0-27" x="139.280836" y="123.697"/>
<use xlink:href="#glyph-0-1" x="145.816743" y="123.697"/>
<use xlink:href="#glyph-0-5" x="152.540348" y="123.697"/>
<use xlink:href="#glyph-0-28" x="157.843675" y="123.697"/>
</g>
<g fill="rgb(0%, 0%, 0%)" fill-opacity="1">
<use xlink:href="#glyph-1-2" x="169.398" y="123.697"/>
</g>
<g fill="rgb(0%, 0%, 0%)" fill-opacity="1">
<use xlink:href="#glyph-1-3" x="177.037373" y="123.697"/>
<use xlink:href="#glyph-1-13" x="182.23908" y="123.697"/>
<use xlink:href="#glyph-1-4" x="186.790425" y="123.697"/>
<use xlink:href="#glyph-1-5" x="192.642495" y="123.697"/>
<use xlink:href="#glyph-1-25" x="199.143733" y="123.697"/>
</g>
<g fill="rgb(0%, 0%, 0%)" fill-opacity="1">
<use xlink:href="#glyph-1-16" x="205.32218" y="123.697"/>
<use xlink:href="#glyph-1-3" x="209.873525" y="123.697"/>
</g>
<g fill="rgb(0%, 0%, 0%)" fill-opacity="1">
<use xlink:href="#glyph-1-11" x="218.972628" y="123.697"/>
<use xlink:href="#glyph-1-6" x="225.473866" y="123.697"/>
<use xlink:href="#glyph-1-13" x="231.325936" y="123.697"/>
<use xlink:href="#glyph-1-6" x="235.877281" y="123.697"/>
</g>
<g fill="rgb(0%, 0%, 0%)" fill-opacity="1">
<use xlink:href="#glyph-1-5" x="245.626746" y="123.697"/>
<use xlink:href="#glyph-1-18" x="252.127984" y="123.697"/>
</g>
<g fill="rgb(0%, 0%, 0%)" fill-opacity="1">
<use xlink:href="#glyph-1-13" x="265.790387" y="123.697"/>
<use xlink:href="#glyph-1-3" x="270.341731" y="123.697"/>
<use xlink:href="#glyph-1-8" x="275.543439" y="123.697"/>
<use xlink:href="#glyph-1-11" x="280.159341" y="123.697"/>
</g>
<g fill="rgb(0%, 0%, 0%)" fill-opacity="1">
<use xlink:href="#glyph-1-12" x="286.98337" y="123.697"/>
<use xlink:href="#glyph-1-25" x="292.83544" y="123.697"/>
<use xlink:href="#glyph-1-8" x="299.336678" y="123.697"/>
<use xlink:href="#glyph-1-32" x="303.95258" y="123.697"/>
</g>
<g fill="rgb(0%, 0%, 0%)" fill-opacity="1">
<use xlink:href="#glyph-1-26" x="309.48186" y="123.697"/>
</g>
<g fill="rgb(0%, 0%, 0%)" fill-opacity="1">
<use xlink:href="#glyph-1-3" x="315.324367" y="123.697"/>
<use xlink:href="#glyph-1-15" x="320.526074" y="123.697"/>
<use xlink:href="#glyph-1-27" x="323.776693" y="123.697"/>
</g>
<g fill="rgb(0%, 0%, 0%)" fill-opacity="1">
<use xlink:href="#glyph-2-0" x="21.448" y="151.587"/>
</g>
<g fill="rgb(0%, 0%, 0%)" fill-opacity="1">
<use xlink:href="#glyph-1-33" x="33.152" y="151.587"/>
<use xlink:href="#glyph-1-6" x="41.604326" y="151.587"/>
<use xlink:href="#glyph-1-8" x="47.456397" y="151.587"/>
<use xlink:href="#glyph-1-6" x="52.0723" y="151.587"/>
</g>
<g fill="rgb(0%, 0%, 0%)" fill-opacity="1">
<use xlink:href="#glyph-1-11" x="61.821765" y="151.587"/>
</g>
<g fill="rgb(0%, 0%, 0%)" fill-opacity="1">
<use xlink:href="#glyph-1-3" x="68.657748" y="151.587"/>
<use xlink:href="#glyph-1-19" x="73.859456" y="151.587"/>
</g>
<g fill="rgb(0%, 0%, 0%)" fill-opacity="1">
<use xlink:href="#glyph-1-5" x="80.024753" y="151.587"/>
</g>
<g fill="rgb(0%, 0%, 0%)" fill-opacity="1">
<use xlink:href="#glyph-1-3" x="86.537946" y="151.587"/>
</g>
<g fill="rgb(0%, 0%, 0%)" fill-opacity="1">
<use xlink:href="#glyph-1-25" x="91.727698" y="151.587"/>
</g>
<g fill="rgb(0%, 0%, 0%)" fill-opacity="1">
<use xlink:href="#glyph-1-6" x="98.240891" y="151.587"/>
</g>
<g fill="rgb(0%, 0%, 0%)" fill-opacity="1">
<use xlink:href="#glyph-1-10" x="107.990356" y="151.587"/>
<use xlink:href="#glyph-1-0" x="112.541701" y="151.587"/>
<use xlink:href="#glyph-1-34" x="118.393772" y="151.587"/>
<use xlink:href="#glyph-1-22" x="122.294753" y="151.587"/>
</g>
<g fill="rgb(0%, 0%, 0%)" fill-opacity="1">
<use xlink:href="#glyph-1-11" x="132.044219" y="151.587"/>
</g>
<g fill="rgb(0%, 0%, 0%)" fill-opacity="1">
<use xlink:href="#glyph-1-3" x="138.868247" y="151.587"/>
<use xlink:href="#glyph-1-8" x="144.069955" y="151.587"/>
<use xlink:href="#glyph-1-8" x="148.685857" y="151.587"/>
<use xlink:href="#glyph-1-12" x="153.30176" y="151.587"/>
<use xlink:href="#glyph-1-6" x="159.15383" y="151.587"/>
<use xlink:href="#glyph-1-8" x="165.005901" y="151.587"/>
<use xlink:href="#glyph-1-21" x="169.621804" y="151.587"/>
<use xlink:href="#glyph-1-27" x="174.173148" y="151.587"/>
</g>
<g fill="rgb(0%, 0%, 0%)" fill-opacity="1">
<use xlink:href="#glyph-1-0" x="186.533629" y="151.587"/>
<use xlink:href="#glyph-1-35" x="192.3857" y="151.587"/>
<use xlink:href="#glyph-1-36" x="198.23777" y="151.587"/>
</g>
<g fill="rgb(0%, 0%, 0%)" fill-opacity="1">
<use xlink:href="#glyph-1-29" x="207.987236" y="151.587"/>
</g>
<g fill="rgb(0%, 0%, 0%)" fill-opacity="1">
<use xlink:href="#glyph-1-30" x="213.184161" y="151.587"/>
<use xlink:href="#glyph-1-20" x="225.208701" y="151.587"/>
<use xlink:href="#glyph-1-37" x="231.709939" y="151.587"/>
<use xlink:href="#glyph-1-18" x="237.56201" y="151.587"/>
<use xlink:href="#glyph-1-31" x="247.315062" y="151.587"/>
<use xlink:href="#glyph-1-8" x="252.516769" y="151.587"/>
</g>
<g fill="rgb(0%, 0%, 0%)" fill-opacity="1">
<use xlink:href="#glyph-2-0" x="21.448" y="179.477"/>
</g>
<g fill="rgb(0%, 0%, 0%)" fill-opacity="1">
<use xlink:href="#glyph-1-33" x="33.152" y="179.477"/>
<use xlink:href="#glyph-1-6" x="41.604326" y="179.477"/>
<use xlink:href="#glyph-1-8" x="47.456397" y="179.477"/>
<use xlink:href="#glyph-1-6" x="52.0723" y="179.477"/>
</g>
<g fill="rgb(0%, 0%, 0%)" fill-opacity="1">
<use xlink:href="#glyph-1-18" x="61.821765" y="179.477"/>
<use xlink:href="#glyph-1-38" x="71.574817" y="179.477"/>
<use xlink:href="#glyph-1-7" x="76.776525" y="179.477"/>
<use xlink:href="#glyph-1-17" x="83.277763" y="179.477"/>
<use xlink:href="#glyph-1-6" x="86.528381" y="179.477"/>
</g>
<g fill="rgb(0%, 0%, 0%)" fill-opacity="1">
<use xlink:href="#glyph-1-10" x="96.289802" y="179.477"/>
<use xlink:href="#glyph-1-23" x="100.841147" y="179.477"/>
<use xlink:href="#glyph-1-34" x="106.693217" y="179.477"/>
<use xlink:href="#glyph-1-39" x="110.594199" y="179.477"/>
</g>
<g fill="rgb(0%, 0%, 0%)" fill-opacity="1">
<use xlink:href="#glyph-1-11" x="120.343665" y="179.477"/>
</g>
<g fill="rgb(0%, 0%, 0%)" fill-opacity="1">
<use xlink:href="#glyph-1-3" x="127.167693" y="179.477"/>
<use xlink:href="#glyph-1-8" x="132.3694" y="179.477"/>
<use xlink:href="#glyph-1-8" x="136.985303" y="179.477"/>
<use xlink:href="#glyph-1-12" x="141.601206" y="179.477"/>
<use xlink:href="#glyph-1-6" x="147.453276" y="179.477"/>
<use xlink:href="#glyph-1-8" x="153.305347" y="179.477"/>
<use xlink:href="#glyph-1-21" x="157.921249" y="179.477"/>
<use xlink:href="#glyph-1-27" x="162.472594" y="179.477"/>
</g>
<g fill="rgb(0%, 0%, 0%)" fill-opacity="1">
<use xlink:href="#glyph-1-22" x="174.82112" y="179.477"/>
<use xlink:href="#glyph-1-35" x="180.67319" y="179.477"/>
<use xlink:href="#glyph-1-36" x="186.525261" y="179.477"/>
</g>
<g fill="rgb(0%, 0%, 0%)" fill-opacity="1">
<use xlink:href="#glyph-1-29" x="196.286682" y="179.477"/>
</g>
<g fill="rgb(0%, 0%, 0%)" fill-opacity="1">
<use xlink:href="#glyph-1-30" x="201.483607" y="179.477"/>
<use xlink:href="#glyph-1-20" x="213.508147" y="179.477"/>
<use xlink:href="#glyph-1-37" x="220.009385" y="179.477"/>
<use xlink:href="#glyph-1-18" x="225.861455" y="179.477"/>
<use xlink:href="#glyph-1-31" x="235.614508" y="179.477"/>
<use xlink:href="#glyph-1-8" x="240.816215" y="179.477"/>
</g>
<g fill="rgb(0%, 0%, 0%)" fill-opacity="1">
<use xlink:href="#glyph-2-0" x="21.448" y="207.367"/>
</g>
<g fill="rgb(0%, 0%, 0%)" fill-opacity="1">
<use xlink:href="#glyph-1-33" x="33.152" y="207.367"/>
<use xlink:href="#glyph-1-6" x="41.604326" y="207.367"/>
<use xlink:href="#glyph-1-8" x="47.456397" y="207.367"/>
<use xlink:href="#glyph-1-6" x="52.0723" y="207.367"/>
</g>
<g fill="rgb(0%, 0%, 0%)" fill-opacity="1">
<use xlink:href="#glyph-1-4" x="61.821765" y="207.367"/>
<use xlink:href="#glyph-1-13" x="67.673836" y="207.367"/>
<use xlink:href="#glyph-1-6" x="72.22518" y="207.367"/>
<use xlink:href="#glyph-1-25" x="78.077251" y="207.367"/>
<use xlink:href="#glyph-1-7" x="84.578488" y="207.367"/>
<use xlink:href="#glyph-1-3" x="91.079726" y="207.367"/>
</g>
<g fill="rgb(0%, 0%, 0%)" fill-opacity="1">
<use xlink:href="#glyph-1-10" x="100.190784" y="207.367"/>
<use xlink:href="#glyph-1-35" x="104.742129" y="207.367"/>
<use xlink:href="#glyph-1-40" x="110.594199" y="207.367"/>
</g>
<g fill="rgb(0%, 0%, 0%)" fill-opacity="1">
<use xlink:href="#glyph-1-11" x="123.594284" y="207.367"/>
</g>
<g fill="rgb(0%, 0%, 0%)" fill-opacity="1">
<use xlink:href="#glyph-1-3" x="130.418312" y="207.367"/>
<use xlink:href="#glyph-1-8" x="135.620019" y="207.367"/>
<use xlink:href="#glyph-1-8" x="140.235922" y="207.367"/>
<use xlink:href="#glyph-1-12" x="144.851825" y="207.367"/>
<use xlink:href="#glyph-1-6" x="150.703895" y="207.367"/>
<use xlink:href="#glyph-1-8" x="156.555965" y="207.367"/>
<use xlink:href="#glyph-1-21" x="161.171868" y="207.367"/>
<use xlink:href="#glyph-1-27" x="165.723213" y="207.367"/>
</g>
<g fill="rgb(0%, 0%, 0%)" fill-opacity="1">
<use xlink:href="#glyph-1-39" x="178.071739" y="207.367"/>
<use xlink:href="#glyph-1-36" x="183.923809" y="207.367"/>
<use xlink:href="#glyph-1-36" x="189.77588" y="207.367"/>
</g>
<g fill="rgb(0%, 0%, 0%)" fill-opacity="1">
<use xlink:href="#glyph-1-29" x="199.5373" y="207.367"/>
</g>
<g fill="rgb(0%, 0%, 0%)" fill-opacity="1">
<use xlink:href="#glyph-1-30" x="204.734226" y="207.367"/>
<use xlink:href="#glyph-1-20" x="216.758766" y="207.367"/>
<use xlink:href="#glyph-1-37" x="223.260004" y="207.367"/>
<use xlink:href="#glyph-1-18" x="229.112074" y="207.367"/>
<use xlink:href="#glyph-1-31" x="238.865126" y="207.367"/>
<use xlink:href="#glyph-1-8" x="244.066834" y="207.367"/>
</g>
<g clip-path="url(#clip-0)">
<path fill="none" stroke-width="0.398" stroke-linecap="butt" stroke-linejoin="miter" stroke="rgb(0%, 0%, 0%)" stroke-opacity="1" stroke-miterlimit="10" d="M 0 -0.00021875 L 414.960938 -0.00021875 " transform="matrix(1, 0, 0, -1, 0.5, 0.699)"/>
</g>
<path fill="none" stroke-width="0.398" stroke-linecap="butt" stroke-linejoin="miter" stroke="rgb(0%, 0%, 0%)" stroke-opacity="1" stroke-miterlimit="10" d="M 0.00021875 0.00003125 L 0.00021875 212.843781 " transform="matrix(1, 0, 0, -1, 0.699, 213.543)"/>
<g clip-path="url(#clip-1)">
<path fill="none" stroke-width="0.398" stroke-linecap="butt" stroke-linejoin="miter" stroke="rgb(0%, 0%, 0%)" stroke-opacity="1" stroke-miterlimit="10" d="M -0.00028125 0.00003125 L -0.00028125 212.843781 " transform="matrix(1, 0, 0, -1, 415.262, 213.543)"/>
</g>
<g clip-path="url(#clip-2)">
<path fill="none" stroke-width="0.398" stroke-linecap="butt" stroke-linejoin="miter" stroke="rgb(0%, 0%, 0%)" stroke-opacity="1" stroke-miterlimit="10" d="M 0 0.00003125 L 414.960938 0.00003125 " transform="matrix(1, 0, 0, -1, 0.5, 213.543)"/>
</g>
</svg>
